M48
; DRILL file {KiCad (6.0.0-rc1-dev-1574-g3a1e66dba-dirty)} date 2019 January 27, Sunday 21:49:19
; FORMAT={-:-/ absolute / inch / decimal}
; #@! TF.CreationDate,2019-01-27T21:49:19+01:00
; #@! TF.GenerationSoftware,Kicad,Pcbnew,(6.0.0-rc1-dev-1574-g3a1e66dba-dirty)
; #@! TF.FileFunction,Plated,1,2,PTH
FMAT,2
INCH
T1C0.0157
T2C0.0236
T3C0.0335
T4C0.0409
T5C0.0579
%
G90
G05
T1
X3.74Y-3.37
X3.78Y-3.81
X4.025Y-3.37
X4.3Y-3.45
X4.305Y-3.8
X4.305Y-4.18
X4.4742Y-3.3708
T3
X3.6894Y-3.1563
X3.8862Y-3.1563
T4
X5.433Y-3.568
X5.533Y-3.568
X5.433Y-4.3182
X5.533Y-4.3182
X6.1832Y-3.568
X6.2832Y-3.568
X6.1832Y-4.3182
X6.2832Y-4.3182
T5
X5.333Y-3.268
X5.3845Y-3.2105
X5.5814Y-3.1908
X5.583Y-3.168
X5.333Y-4.0182
X5.3845Y-3.9607
X5.5814Y-3.9411
X5.583Y-3.9182
X6.0832Y-3.268
X6.1348Y-3.2105
X6.3317Y-3.1908
X6.3332Y-3.168
X6.0832Y-4.0182
X6.1348Y-3.9607
X6.3317Y-3.9411
X6.3332Y-3.9182
T2
G00X3.65Y-3.0638
M15
G01X3.65Y-3.0362
M16
G05
G00X3.9256Y-3.0362
M15
G01X3.9256Y-3.0638
M16
G05
T0
M30
