G04 #@! TF.GenerationSoftware,KiCad,Pcbnew,(6.0.0-rc1-dev-1574-g3a1e66dba-dirty)*
G04 #@! TF.CreationDate,2019-01-27T21:49:17+01:00
G04 #@! TF.ProjectId,ai03_tutorial,61693033-5f74-4757-946f-7269616c2e6b,rev?*
G04 #@! TF.SameCoordinates,Original*
G04 #@! TF.FileFunction,Copper,L1,Top*
G04 #@! TF.FilePolarity,Positive*
%FSLAX46Y46*%
G04 Gerber Fmt 4.6, Leading zero omitted, Abs format (unit mm)*
G04 Created by KiCad (PCBNEW (6.0.0-rc1-dev-1574-g3a1e66dba-dirty)) date 2019 January 27, Sunday 21:49:17*
%MOMM*%
%LPD*%
G04 APERTURE LIST*
%ADD10R,1.905000X1.905000*%
%ADD11C,1.905000*%
%ADD12C,2.250000*%
%ADD13C,2.250000*%
%ADD14C,1.450000*%
%ADD15O,1.200000X1.900000*%
%ADD16C,0.800000*%
%ADD17C,0.381000*%
%ADD18C,0.254000*%
G04 APERTURE END LIST*
D10*
X140537001Y-90626001D03*
D11*
X137997001Y-90626001D03*
D12*
X136767001Y-81546001D03*
X136112002Y-82276001D03*
D13*
X135457001Y-83006001D02*
X136767003Y-81546001D01*
D12*
X141807001Y-80466001D03*
X141787001Y-80756001D03*
D13*
X141767001Y-81046001D02*
X141807001Y-80466001D01*
D12*
X141787001Y-99813001D03*
D13*
X141767001Y-100103001D02*
X141807001Y-99523001D01*
D12*
X141807001Y-99523001D03*
X136112002Y-101333001D03*
D13*
X135457001Y-102063001D02*
X136767003Y-100603001D01*
D12*
X136767001Y-100603001D03*
D11*
X137997001Y-109683001D03*
D10*
X140537001Y-109683001D03*
D12*
X160844001Y-80756001D03*
D13*
X160824001Y-81046001D02*
X160864001Y-80466001D01*
D12*
X160864001Y-80466001D03*
X155169002Y-82276001D03*
D13*
X154514001Y-83006001D02*
X155824003Y-81546001D01*
D12*
X155824001Y-81546001D03*
D11*
X157054001Y-90626001D03*
D10*
X159594001Y-90626001D03*
X159594001Y-109683001D03*
D11*
X157054001Y-109683001D03*
D12*
X155824001Y-100603001D03*
X155169002Y-101333001D03*
D13*
X154514001Y-102063001D02*
X155824003Y-100603001D01*
D12*
X160864001Y-99523001D03*
X160844001Y-99813001D03*
D13*
X160824001Y-100103001D02*
X160864001Y-99523001D01*
D14*
X93710000Y-80170000D03*
X98710000Y-80170000D03*
D15*
X92710000Y-77470000D03*
X99710000Y-77470000D03*
D16*
X113645468Y-85617532D03*
X102235000Y-85598000D03*
X94996000Y-85598000D03*
X109347000Y-96520000D03*
X109347000Y-106172000D03*
X96012000Y-96774000D03*
X109220000Y-87630000D03*
D17*
X113645468Y-85617532D02*
X102508532Y-85617532D01*
X102489000Y-85598000D02*
X102235000Y-85598000D01*
X102508532Y-85617532D02*
X102489000Y-85598000D01*
X102235000Y-85598000D02*
X94996000Y-85598000D01*
X109347000Y-96520000D02*
X109347000Y-106172000D01*
D18*
X135457001Y-99293001D02*
X136767001Y-100603001D01*
X135457001Y-83006001D02*
X135457001Y-99293001D01*
X154514001Y-99293001D02*
X155824001Y-100603001D01*
X154514001Y-83006001D02*
X154514001Y-99293001D01*
X100076000Y-96774000D02*
X109220000Y-87630000D01*
X96012000Y-96774000D02*
X100076000Y-96774000D01*
M02*
