G04 #@! TF.GenerationSoftware,KiCad,Pcbnew,(6.0.0-rc1-dev-1574-g3a1e66dba-dirty)*
G04 #@! TF.CreationDate,2019-01-27T21:49:17+01:00
G04 #@! TF.ProjectId,ai03_tutorial,61693033-5f74-4757-946f-7269616c2e6b,rev?*
G04 #@! TF.SameCoordinates,Original*
G04 #@! TF.FileFunction,Paste,Bot*
G04 #@! TF.FilePolarity,Positive*
%FSLAX46Y46*%
G04 Gerber Fmt 4.6, Leading zero omitted, Abs format (unit mm)*
G04 Created by KiCad (PCBNEW (6.0.0-rc1-dev-1574-g3a1e66dba-dirty)) date 2019 January 27, Sunday 21:49:17*
%MOMM*%
%LPD*%
G04 APERTURE LIST*
%ADD10R,1.000000X1.250000*%
%ADD11R,1.250000X1.000000*%
%ADD12R,1.200000X0.900000*%
%ADD13R,2.029460X1.140460*%
%ADD14R,1.300000X0.700000*%
%ADD15R,0.700000X1.300000*%
%ADD16R,1.800000X1.100000*%
%ADD17R,1.500000X0.550000*%
%ADD18R,0.550000X1.500000*%
%ADD19R,1.200000X1.400000*%
%ADD20R,1.500000X1.900000*%
%ADD21R,0.400000X1.350000*%
G04 APERTURE END LIST*
D10*
X115046000Y-105791000D03*
X113046000Y-105791000D03*
X122412000Y-105791000D03*
X120412000Y-105791000D03*
D11*
X114808000Y-79518000D03*
X114808000Y-81518000D03*
X111125000Y-79502000D03*
X111125000Y-81502000D03*
X110109000Y-91551000D03*
X110109000Y-89551000D03*
D10*
X107156000Y-89535000D03*
X105156000Y-89535000D03*
D12*
X147447000Y-87628000D03*
X147447000Y-84328000D03*
X147447000Y-106678000D03*
X147447000Y-103378000D03*
X166497000Y-84328000D03*
X166497000Y-87628000D03*
X166497000Y-103378000D03*
X166497000Y-106678000D03*
D13*
X99568000Y-90418920D03*
X99568000Y-88011000D03*
D14*
X97028000Y-90231000D03*
X97028000Y-88331000D03*
X94742000Y-88331000D03*
X94742000Y-90231000D03*
D15*
X95946000Y-100330000D03*
X94046000Y-100330000D03*
D14*
X127127000Y-101788000D03*
X127127000Y-99888000D03*
D16*
X100890000Y-104449000D03*
X94690000Y-108149000D03*
X100890000Y-108149000D03*
X94690000Y-104449000D03*
D17*
X112664000Y-99885000D03*
X112664000Y-99085000D03*
X112664000Y-98285000D03*
X112664000Y-97485000D03*
X112664000Y-96685000D03*
X112664000Y-95885000D03*
X112664000Y-95085000D03*
X112664000Y-94285000D03*
X112664000Y-93485000D03*
X112664000Y-92685000D03*
X112664000Y-91885000D03*
D18*
X114364000Y-90185000D03*
X115164000Y-90185000D03*
X115964000Y-90185000D03*
X116764000Y-90185000D03*
X117564000Y-90185000D03*
X118364000Y-90185000D03*
X119164000Y-90185000D03*
X119964000Y-90185000D03*
X120764000Y-90185000D03*
X121564000Y-90185000D03*
X122364000Y-90185000D03*
D17*
X124064000Y-91885000D03*
X124064000Y-92685000D03*
X124064000Y-93485000D03*
X124064000Y-94285000D03*
X124064000Y-95085000D03*
X124064000Y-95885000D03*
X124064000Y-96685000D03*
X124064000Y-97485000D03*
X124064000Y-98285000D03*
X124064000Y-99085000D03*
X124064000Y-99885000D03*
D18*
X122364000Y-101585000D03*
X121564000Y-101585000D03*
X120764000Y-101585000D03*
X119964000Y-101585000D03*
X119164000Y-101585000D03*
X118364000Y-101585000D03*
X117564000Y-101585000D03*
X116764000Y-101585000D03*
X115964000Y-101585000D03*
X115164000Y-101585000D03*
X114364000Y-101585000D03*
D19*
X121119000Y-79418000D03*
X121119000Y-81618000D03*
X119419000Y-81618000D03*
X119419000Y-79418000D03*
D11*
X126111000Y-81391000D03*
X126111000Y-79391000D03*
D20*
X97210000Y-77470000D03*
D21*
X95560000Y-80170000D03*
X94910000Y-80170000D03*
X97510000Y-80170000D03*
X96860000Y-80170000D03*
X96210000Y-80170000D03*
D20*
X95210000Y-77470000D03*
M02*
