G04 #@! TF.GenerationSoftware,KiCad,Pcbnew,(6.0.0-rc1-dev-1574-g3a1e66dba-dirty)*
G04 #@! TF.CreationDate,2019-01-27T21:49:17+01:00
G04 #@! TF.ProjectId,ai03_tutorial,61693033-5f74-4757-946f-7269616c2e6b,rev?*
G04 #@! TF.SameCoordinates,Original*
G04 #@! TF.FileFunction,Legend,Bot*
G04 #@! TF.FilePolarity,Positive*
%FSLAX46Y46*%
G04 Gerber Fmt 4.6, Leading zero omitted, Abs format (unit mm)*
G04 Created by KiCad (PCBNEW (6.0.0-rc1-dev-1574-g3a1e66dba-dirty)) date 2019 January 27, Sunday 21:49:17*
%MOMM*%
%LPD*%
G04 APERTURE LIST*
%ADD10C,0.150000*%
%ADD11C,0.120000*%
G04 APERTURE END LIST*
D10*
X113546000Y-104941000D02*
X114546000Y-104941000D01*
X114546000Y-106641000D02*
X113546000Y-106641000D01*
X120912000Y-104941000D02*
X121912000Y-104941000D01*
X121912000Y-106641000D02*
X120912000Y-106641000D01*
X113958000Y-81018000D02*
X113958000Y-80018000D01*
X115658000Y-80018000D02*
X115658000Y-81018000D01*
X110275000Y-81002000D02*
X110275000Y-80002000D01*
X111975000Y-80002000D02*
X111975000Y-81002000D01*
X110959000Y-90051000D02*
X110959000Y-91051000D01*
X109259000Y-91051000D02*
X109259000Y-90051000D01*
X105656000Y-88685000D02*
X106656000Y-88685000D01*
X106656000Y-90385000D02*
X105656000Y-90385000D01*
D11*
X148447000Y-88228000D02*
X146447000Y-88228000D01*
X146447000Y-88228000D02*
X146447000Y-84328000D01*
X148447000Y-88228000D02*
X148447000Y-84328000D01*
X148447000Y-107278000D02*
X146447000Y-107278000D01*
X146447000Y-107278000D02*
X146447000Y-103378000D01*
X148447000Y-107278000D02*
X148447000Y-103378000D01*
X167497000Y-88228000D02*
X167497000Y-84328000D01*
X165497000Y-88228000D02*
X165497000Y-84328000D01*
X167497000Y-88228000D02*
X165497000Y-88228000D01*
X167497000Y-107278000D02*
X167497000Y-103378000D01*
X165497000Y-107278000D02*
X165497000Y-103378000D01*
X167497000Y-107278000D02*
X165497000Y-107278000D01*
D10*
X96153000Y-88681000D02*
X96153000Y-89881000D01*
X97903000Y-89881000D02*
X97903000Y-88681000D01*
X95617000Y-89881000D02*
X95617000Y-88681000D01*
X93867000Y-88681000D02*
X93867000Y-89881000D01*
X94396000Y-101205000D02*
X95596000Y-101205000D01*
X95596000Y-99455000D02*
X94396000Y-99455000D01*
X126252000Y-100238000D02*
X126252000Y-101438000D01*
X128002000Y-101438000D02*
X128002000Y-100238000D01*
X98790000Y-106299000D02*
G75*
G03X98790000Y-106299000I-1000000J0D01*
G01*
X95190000Y-103699000D02*
X95190000Y-108899000D01*
X100390000Y-103699000D02*
X95190000Y-103699000D01*
X100390000Y-108899000D02*
X100390000Y-103699000D01*
X95190000Y-108899000D02*
X100390000Y-108899000D01*
X113189000Y-101060000D02*
X113189000Y-100485000D01*
X123539000Y-101060000D02*
X123539000Y-100385000D01*
X123539000Y-90710000D02*
X123539000Y-91385000D01*
X113189000Y-90710000D02*
X113189000Y-91385000D01*
X113189000Y-101060000D02*
X113864000Y-101060000D01*
X113189000Y-90710000D02*
X113864000Y-90710000D01*
X123539000Y-90710000D02*
X122864000Y-90710000D01*
X123539000Y-101060000D02*
X122864000Y-101060000D01*
X113189000Y-100485000D02*
X111914000Y-100485000D01*
D11*
X118619000Y-78518000D02*
X121919000Y-78518000D01*
X121919000Y-78518000D02*
X121919000Y-82518000D01*
D10*
X126961000Y-79891000D02*
X126961000Y-80891000D01*
X125261000Y-80891000D02*
X125261000Y-79891000D01*
D11*
X92310000Y-80470000D02*
X92760000Y-80470000D01*
X92310000Y-78620000D02*
X92310000Y-80470000D01*
X100110000Y-76070000D02*
X100110000Y-76320000D01*
X92310000Y-76070000D02*
X92310000Y-76320000D01*
X100110000Y-78620000D02*
X100110000Y-80470000D01*
X100110000Y-80470000D02*
X99660000Y-80470000D01*
X94510000Y-81020000D02*
X94960000Y-81020000D01*
X94510000Y-81020000D02*
X94510000Y-80570000D01*
D10*
X114212666Y-108248142D02*
X114260285Y-108295761D01*
X114403142Y-108343380D01*
X114498380Y-108343380D01*
X114641238Y-108295761D01*
X114736476Y-108200523D01*
X114784095Y-108105285D01*
X114831714Y-107914809D01*
X114831714Y-107771952D01*
X114784095Y-107581476D01*
X114736476Y-107486238D01*
X114641238Y-107391000D01*
X114498380Y-107343380D01*
X114403142Y-107343380D01*
X114260285Y-107391000D01*
X114212666Y-107438619D01*
X113260285Y-108343380D02*
X113831714Y-108343380D01*
X113546000Y-108343380D02*
X113546000Y-107343380D01*
X113641238Y-107486238D01*
X113736476Y-107581476D01*
X113831714Y-107629095D01*
X121578666Y-104048142D02*
X121626285Y-104095761D01*
X121769142Y-104143380D01*
X121864380Y-104143380D01*
X122007238Y-104095761D01*
X122102476Y-104000523D01*
X122150095Y-103905285D01*
X122197714Y-103714809D01*
X122197714Y-103571952D01*
X122150095Y-103381476D01*
X122102476Y-103286238D01*
X122007238Y-103191000D01*
X121864380Y-103143380D01*
X121769142Y-103143380D01*
X121626285Y-103191000D01*
X121578666Y-103238619D01*
X121197714Y-103238619D02*
X121150095Y-103191000D01*
X121054857Y-103143380D01*
X120816761Y-103143380D01*
X120721523Y-103191000D01*
X120673904Y-103238619D01*
X120626285Y-103333857D01*
X120626285Y-103429095D01*
X120673904Y-103571952D01*
X121245333Y-104143380D01*
X120626285Y-104143380D01*
X113065142Y-80351333D02*
X113112761Y-80303714D01*
X113160380Y-80160857D01*
X113160380Y-80065619D01*
X113112761Y-79922761D01*
X113017523Y-79827523D01*
X112922285Y-79779904D01*
X112731809Y-79732285D01*
X112588952Y-79732285D01*
X112398476Y-79779904D01*
X112303238Y-79827523D01*
X112208000Y-79922761D01*
X112160380Y-80065619D01*
X112160380Y-80160857D01*
X112208000Y-80303714D01*
X112255619Y-80351333D01*
X112493714Y-81208476D02*
X113160380Y-81208476D01*
X112112761Y-80970380D02*
X112827047Y-80732285D01*
X112827047Y-81351333D01*
X113582142Y-80335333D02*
X113629761Y-80287714D01*
X113677380Y-80144857D01*
X113677380Y-80049619D01*
X113629761Y-79906761D01*
X113534523Y-79811523D01*
X113439285Y-79763904D01*
X113248809Y-79716285D01*
X113105952Y-79716285D01*
X112915476Y-79763904D01*
X112820238Y-79811523D01*
X112725000Y-79906761D01*
X112677380Y-80049619D01*
X112677380Y-80144857D01*
X112725000Y-80287714D01*
X112772619Y-80335333D01*
X112677380Y-81240095D02*
X112677380Y-80763904D01*
X113153571Y-80716285D01*
X113105952Y-80763904D01*
X113058333Y-80859142D01*
X113058333Y-81097238D01*
X113105952Y-81192476D01*
X113153571Y-81240095D01*
X113248809Y-81287714D01*
X113486904Y-81287714D01*
X113582142Y-81240095D01*
X113629761Y-81192476D01*
X113677380Y-81097238D01*
X113677380Y-80859142D01*
X113629761Y-80763904D01*
X113582142Y-80716285D01*
X112566142Y-90384333D02*
X112613761Y-90336714D01*
X112661380Y-90193857D01*
X112661380Y-90098619D01*
X112613761Y-89955761D01*
X112518523Y-89860523D01*
X112423285Y-89812904D01*
X112232809Y-89765285D01*
X112089952Y-89765285D01*
X111899476Y-89812904D01*
X111804238Y-89860523D01*
X111709000Y-89955761D01*
X111661380Y-90098619D01*
X111661380Y-90193857D01*
X111709000Y-90336714D01*
X111756619Y-90384333D01*
X111661380Y-91241476D02*
X111661380Y-91051000D01*
X111709000Y-90955761D01*
X111756619Y-90908142D01*
X111899476Y-90812904D01*
X112089952Y-90765285D01*
X112470904Y-90765285D01*
X112566142Y-90812904D01*
X112613761Y-90860523D01*
X112661380Y-90955761D01*
X112661380Y-91146238D01*
X112613761Y-91241476D01*
X112566142Y-91289095D01*
X112470904Y-91336714D01*
X112232809Y-91336714D01*
X112137571Y-91289095D01*
X112089952Y-91241476D01*
X112042333Y-91146238D01*
X112042333Y-90955761D01*
X112089952Y-90860523D01*
X112137571Y-90812904D01*
X112232809Y-90765285D01*
X106322666Y-87792142D02*
X106370285Y-87839761D01*
X106513142Y-87887380D01*
X106608380Y-87887380D01*
X106751238Y-87839761D01*
X106846476Y-87744523D01*
X106894095Y-87649285D01*
X106941714Y-87458809D01*
X106941714Y-87315952D01*
X106894095Y-87125476D01*
X106846476Y-87030238D01*
X106751238Y-86935000D01*
X106608380Y-86887380D01*
X106513142Y-86887380D01*
X106370285Y-86935000D01*
X106322666Y-86982619D01*
X105989333Y-86887380D02*
X105322666Y-86887380D01*
X105751238Y-87887380D01*
X149899380Y-85239904D02*
X148899380Y-85239904D01*
X148899380Y-85478000D01*
X148947000Y-85620857D01*
X149042238Y-85716095D01*
X149137476Y-85763714D01*
X149327952Y-85811333D01*
X149470809Y-85811333D01*
X149661285Y-85763714D01*
X149756523Y-85716095D01*
X149851761Y-85620857D01*
X149899380Y-85478000D01*
X149899380Y-85239904D01*
X149899380Y-86763714D02*
X149899380Y-86192285D01*
X149899380Y-86478000D02*
X148899380Y-86478000D01*
X149042238Y-86382761D01*
X149137476Y-86287523D01*
X149185095Y-86192285D01*
X149899380Y-104289904D02*
X148899380Y-104289904D01*
X148899380Y-104528000D01*
X148947000Y-104670857D01*
X149042238Y-104766095D01*
X149137476Y-104813714D01*
X149327952Y-104861333D01*
X149470809Y-104861333D01*
X149661285Y-104813714D01*
X149756523Y-104766095D01*
X149851761Y-104670857D01*
X149899380Y-104528000D01*
X149899380Y-104289904D01*
X148994619Y-105242285D02*
X148947000Y-105289904D01*
X148899380Y-105385142D01*
X148899380Y-105623238D01*
X148947000Y-105718476D01*
X148994619Y-105766095D01*
X149089857Y-105813714D01*
X149185095Y-105813714D01*
X149327952Y-105766095D01*
X149899380Y-105194666D01*
X149899380Y-105813714D01*
X168949380Y-85239904D02*
X167949380Y-85239904D01*
X167949380Y-85478000D01*
X167997000Y-85620857D01*
X168092238Y-85716095D01*
X168187476Y-85763714D01*
X168377952Y-85811333D01*
X168520809Y-85811333D01*
X168711285Y-85763714D01*
X168806523Y-85716095D01*
X168901761Y-85620857D01*
X168949380Y-85478000D01*
X168949380Y-85239904D01*
X167949380Y-86144666D02*
X167949380Y-86763714D01*
X168330333Y-86430380D01*
X168330333Y-86573238D01*
X168377952Y-86668476D01*
X168425571Y-86716095D01*
X168520809Y-86763714D01*
X168758904Y-86763714D01*
X168854142Y-86716095D01*
X168901761Y-86668476D01*
X168949380Y-86573238D01*
X168949380Y-86287523D01*
X168901761Y-86192285D01*
X168854142Y-86144666D01*
X168949380Y-104289904D02*
X167949380Y-104289904D01*
X167949380Y-104528000D01*
X167997000Y-104670857D01*
X168092238Y-104766095D01*
X168187476Y-104813714D01*
X168377952Y-104861333D01*
X168520809Y-104861333D01*
X168711285Y-104813714D01*
X168806523Y-104766095D01*
X168901761Y-104670857D01*
X168949380Y-104528000D01*
X168949380Y-104289904D01*
X168282714Y-105718476D02*
X168949380Y-105718476D01*
X167901761Y-105480380D02*
X168616047Y-105242285D01*
X168616047Y-105861333D01*
X102247391Y-88980686D02*
X102247391Y-88647353D01*
X102771200Y-88647353D02*
X101771200Y-88647353D01*
X101771200Y-89123543D01*
X102771200Y-90028305D02*
X102771200Y-89456877D01*
X102771200Y-89742591D02*
X101771200Y-89742591D01*
X101914058Y-89647353D01*
X102009296Y-89552115D01*
X102056915Y-89456877D01*
X99580380Y-89114333D02*
X99104190Y-88781000D01*
X99580380Y-88542904D02*
X98580380Y-88542904D01*
X98580380Y-88923857D01*
X98628000Y-89019095D01*
X98675619Y-89066714D01*
X98770857Y-89114333D01*
X98913714Y-89114333D01*
X99008952Y-89066714D01*
X99056571Y-89019095D01*
X99104190Y-88923857D01*
X99104190Y-88542904D01*
X99580380Y-90066714D02*
X99580380Y-89495285D01*
X99580380Y-89781000D02*
X98580380Y-89781000D01*
X98723238Y-89685761D01*
X98818476Y-89590523D01*
X98866095Y-89495285D01*
X97294380Y-89114333D02*
X96818190Y-88781000D01*
X97294380Y-88542904D02*
X96294380Y-88542904D01*
X96294380Y-88923857D01*
X96342000Y-89019095D01*
X96389619Y-89066714D01*
X96484857Y-89114333D01*
X96627714Y-89114333D01*
X96722952Y-89066714D01*
X96770571Y-89019095D01*
X96818190Y-88923857D01*
X96818190Y-88542904D01*
X96389619Y-89495285D02*
X96342000Y-89542904D01*
X96294380Y-89638142D01*
X96294380Y-89876238D01*
X96342000Y-89971476D01*
X96389619Y-90019095D01*
X96484857Y-90066714D01*
X96580095Y-90066714D01*
X96722952Y-90019095D01*
X97294380Y-89447666D01*
X97294380Y-90066714D01*
X95162666Y-102882380D02*
X95496000Y-102406190D01*
X95734095Y-102882380D02*
X95734095Y-101882380D01*
X95353142Y-101882380D01*
X95257904Y-101930000D01*
X95210285Y-101977619D01*
X95162666Y-102072857D01*
X95162666Y-102215714D01*
X95210285Y-102310952D01*
X95257904Y-102358571D01*
X95353142Y-102406190D01*
X95734095Y-102406190D01*
X94829333Y-101882380D02*
X94210285Y-101882380D01*
X94543619Y-102263333D01*
X94400761Y-102263333D01*
X94305523Y-102310952D01*
X94257904Y-102358571D01*
X94210285Y-102453809D01*
X94210285Y-102691904D01*
X94257904Y-102787142D01*
X94305523Y-102834761D01*
X94400761Y-102882380D01*
X94686476Y-102882380D01*
X94781714Y-102834761D01*
X94829333Y-102787142D01*
X129679380Y-100671333D02*
X129203190Y-100338000D01*
X129679380Y-100099904D02*
X128679380Y-100099904D01*
X128679380Y-100480857D01*
X128727000Y-100576095D01*
X128774619Y-100623714D01*
X128869857Y-100671333D01*
X129012714Y-100671333D01*
X129107952Y-100623714D01*
X129155571Y-100576095D01*
X129203190Y-100480857D01*
X129203190Y-100099904D01*
X129012714Y-101528476D02*
X129679380Y-101528476D01*
X128631761Y-101290380D02*
X129346047Y-101052285D01*
X129346047Y-101671333D01*
X99123333Y-102639761D02*
X98980476Y-102687380D01*
X98742380Y-102687380D01*
X98647142Y-102639761D01*
X98599523Y-102592142D01*
X98551904Y-102496904D01*
X98551904Y-102401666D01*
X98599523Y-102306428D01*
X98647142Y-102258809D01*
X98742380Y-102211190D01*
X98932857Y-102163571D01*
X99028095Y-102115952D01*
X99075714Y-102068333D01*
X99123333Y-101973095D01*
X99123333Y-101877857D01*
X99075714Y-101782619D01*
X99028095Y-101735000D01*
X98932857Y-101687380D01*
X98694761Y-101687380D01*
X98551904Y-101735000D01*
X98218571Y-101687380D02*
X97980476Y-102687380D01*
X97790000Y-101973095D01*
X97599523Y-102687380D01*
X97361428Y-101687380D01*
X96456666Y-102687380D02*
X97028095Y-102687380D01*
X96742380Y-102687380D02*
X96742380Y-101687380D01*
X96837619Y-101830238D01*
X96932857Y-101925476D01*
X97028095Y-101973095D01*
X119125904Y-102787380D02*
X119125904Y-103596904D01*
X119078285Y-103692142D01*
X119030666Y-103739761D01*
X118935428Y-103787380D01*
X118744952Y-103787380D01*
X118649714Y-103739761D01*
X118602095Y-103692142D01*
X118554476Y-103596904D01*
X118554476Y-102787380D01*
X117554476Y-103787380D02*
X118125904Y-103787380D01*
X117840190Y-103787380D02*
X117840190Y-102787380D01*
X117935428Y-102930238D01*
X118030666Y-103025476D01*
X118125904Y-103073095D01*
X117795190Y-80041809D02*
X118271380Y-80041809D01*
X117271380Y-79708476D02*
X117795190Y-80041809D01*
X117271380Y-80375142D01*
X118271380Y-81232285D02*
X118271380Y-80660857D01*
X118271380Y-80946571D02*
X117271380Y-80946571D01*
X117414238Y-80851333D01*
X117509476Y-80756095D01*
X117557095Y-80660857D01*
X128568142Y-80224333D02*
X128615761Y-80176714D01*
X128663380Y-80033857D01*
X128663380Y-79938619D01*
X128615761Y-79795761D01*
X128520523Y-79700523D01*
X128425285Y-79652904D01*
X128234809Y-79605285D01*
X128091952Y-79605285D01*
X127901476Y-79652904D01*
X127806238Y-79700523D01*
X127711000Y-79795761D01*
X127663380Y-79938619D01*
X127663380Y-80033857D01*
X127711000Y-80176714D01*
X127758619Y-80224333D01*
X127663380Y-80557666D02*
X127663380Y-81176714D01*
X128044333Y-80843380D01*
X128044333Y-80986238D01*
X128091952Y-81081476D01*
X128139571Y-81129095D01*
X128234809Y-81176714D01*
X128472904Y-81176714D01*
X128568142Y-81129095D01*
X128615761Y-81081476D01*
X128663380Y-80986238D01*
X128663380Y-80700523D01*
X128615761Y-80605285D01*
X128568142Y-80557666D01*
X97948095Y-81272380D02*
X97948095Y-82081904D01*
X97900476Y-82177142D01*
X97852857Y-82224761D01*
X97757619Y-82272380D01*
X97567142Y-82272380D01*
X97471904Y-82224761D01*
X97424285Y-82177142D01*
X97376666Y-82081904D01*
X97376666Y-81272380D01*
X96948095Y-82224761D02*
X96805238Y-82272380D01*
X96567142Y-82272380D01*
X96471904Y-82224761D01*
X96424285Y-82177142D01*
X96376666Y-82081904D01*
X96376666Y-81986666D01*
X96424285Y-81891428D01*
X96471904Y-81843809D01*
X96567142Y-81796190D01*
X96757619Y-81748571D01*
X96852857Y-81700952D01*
X96900476Y-81653333D01*
X96948095Y-81558095D01*
X96948095Y-81462857D01*
X96900476Y-81367619D01*
X96852857Y-81320000D01*
X96757619Y-81272380D01*
X96519523Y-81272380D01*
X96376666Y-81320000D01*
X95614761Y-81748571D02*
X95471904Y-81796190D01*
X95424285Y-81843809D01*
X95376666Y-81939047D01*
X95376666Y-82081904D01*
X95424285Y-82177142D01*
X95471904Y-82224761D01*
X95567142Y-82272380D01*
X95948095Y-82272380D01*
X95948095Y-81272380D01*
X95614761Y-81272380D01*
X95519523Y-81320000D01*
X95471904Y-81367619D01*
X95424285Y-81462857D01*
X95424285Y-81558095D01*
X95471904Y-81653333D01*
X95519523Y-81700952D01*
X95614761Y-81748571D01*
X95948095Y-81748571D01*
X94424285Y-82272380D02*
X94995714Y-82272380D01*
X94710000Y-82272380D02*
X94710000Y-81272380D01*
X94805238Y-81415238D01*
X94900476Y-81510476D01*
X94995714Y-81558095D01*
M02*
