G04 #@! TF.GenerationSoftware,KiCad,Pcbnew,(6.0.0-rc1-dev-1574-g3a1e66dba-dirty)*
G04 #@! TF.CreationDate,2019-01-27T21:49:17+01:00
G04 #@! TF.ProjectId,ai03_tutorial,61693033-5f74-4757-946f-7269616c2e6b,rev?*
G04 #@! TF.SameCoordinates,Original*
G04 #@! TF.FileFunction,Copper,L2,Bot*
G04 #@! TF.FilePolarity,Positive*
%FSLAX46Y46*%
G04 Gerber Fmt 4.6, Leading zero omitted, Abs format (unit mm)*
G04 Created by KiCad (PCBNEW (6.0.0-rc1-dev-1574-g3a1e66dba-dirty)) date 2019 January 27, Sunday 21:49:17*
%MOMM*%
%LPD*%
G04 APERTURE LIST*
%ADD10R,1.000000X1.250000*%
%ADD11R,1.250000X1.000000*%
%ADD12R,1.200000X0.900000*%
%ADD13R,2.029460X1.140460*%
%ADD14R,1.905000X1.905000*%
%ADD15C,1.905000*%
%ADD16C,2.250000*%
%ADD17C,2.250000*%
%ADD18R,1.300000X0.700000*%
%ADD19R,0.700000X1.300000*%
%ADD20R,1.800000X1.100000*%
%ADD21R,1.500000X0.550000*%
%ADD22R,0.550000X1.500000*%
%ADD23R,1.200000X1.400000*%
%ADD24R,1.500000X1.900000*%
%ADD25C,1.450000*%
%ADD26R,0.400000X1.350000*%
%ADD27O,1.200000X1.900000*%
%ADD28R,1.200000X1.900000*%
%ADD29C,0.800000*%
%ADD30C,0.381000*%
%ADD31C,0.254000*%
G04 APERTURE END LIST*
D10*
X115046000Y-105791000D03*
X113046000Y-105791000D03*
X122412000Y-105791000D03*
X120412000Y-105791000D03*
D11*
X114808000Y-79518000D03*
X114808000Y-81518000D03*
X111125000Y-79502000D03*
X111125000Y-81502000D03*
X110109000Y-91551000D03*
X110109000Y-89551000D03*
D10*
X107156000Y-89535000D03*
X105156000Y-89535000D03*
D12*
X147447000Y-87628000D03*
X147447000Y-84328000D03*
X147447000Y-106678000D03*
X147447000Y-103378000D03*
X166497000Y-84328000D03*
X166497000Y-87628000D03*
X166497000Y-103378000D03*
X166497000Y-106678000D03*
D13*
X99568000Y-90418920D03*
X99568000Y-88011000D03*
D14*
X140537001Y-90626001D03*
D15*
X137997001Y-90626001D03*
D16*
X136767001Y-81546001D03*
X136112002Y-82276001D03*
D17*
X135457001Y-83006001D02*
X136767003Y-81546001D01*
D16*
X141807001Y-80466001D03*
X141787001Y-80756001D03*
D17*
X141767001Y-81046001D02*
X141807001Y-80466001D01*
D16*
X141787001Y-99813001D03*
D17*
X141767001Y-100103001D02*
X141807001Y-99523001D01*
D16*
X141807001Y-99523001D03*
X136112002Y-101333001D03*
D17*
X135457001Y-102063001D02*
X136767003Y-100603001D01*
D16*
X136767001Y-100603001D03*
D15*
X137997001Y-109683001D03*
D14*
X140537001Y-109683001D03*
D16*
X160844001Y-80756001D03*
D17*
X160824001Y-81046001D02*
X160864001Y-80466001D01*
D16*
X160864001Y-80466001D03*
X155169002Y-82276001D03*
D17*
X154514001Y-83006001D02*
X155824003Y-81546001D01*
D16*
X155824001Y-81546001D03*
D15*
X157054001Y-90626001D03*
D14*
X159594001Y-90626001D03*
X159594001Y-109683001D03*
D15*
X157054001Y-109683001D03*
D16*
X155824001Y-100603001D03*
X155169002Y-101333001D03*
D17*
X154514001Y-102063001D02*
X155824003Y-100603001D01*
D16*
X160864001Y-99523001D03*
X160844001Y-99813001D03*
D17*
X160824001Y-100103001D02*
X160864001Y-99523001D01*
D18*
X97028000Y-90231000D03*
X97028000Y-88331000D03*
X94742000Y-88331000D03*
X94742000Y-90231000D03*
D19*
X95946000Y-100330000D03*
X94046000Y-100330000D03*
D18*
X127127000Y-101788000D03*
X127127000Y-99888000D03*
D20*
X100890000Y-104449000D03*
X94690000Y-108149000D03*
X100890000Y-108149000D03*
X94690000Y-104449000D03*
D21*
X112664000Y-99885000D03*
X112664000Y-99085000D03*
X112664000Y-98285000D03*
X112664000Y-97485000D03*
X112664000Y-96685000D03*
X112664000Y-95885000D03*
X112664000Y-95085000D03*
X112664000Y-94285000D03*
X112664000Y-93485000D03*
X112664000Y-92685000D03*
X112664000Y-91885000D03*
D22*
X114364000Y-90185000D03*
X115164000Y-90185000D03*
X115964000Y-90185000D03*
X116764000Y-90185000D03*
X117564000Y-90185000D03*
X118364000Y-90185000D03*
X119164000Y-90185000D03*
X119964000Y-90185000D03*
X120764000Y-90185000D03*
X121564000Y-90185000D03*
X122364000Y-90185000D03*
D21*
X124064000Y-91885000D03*
X124064000Y-92685000D03*
X124064000Y-93485000D03*
X124064000Y-94285000D03*
X124064000Y-95085000D03*
X124064000Y-95885000D03*
X124064000Y-96685000D03*
X124064000Y-97485000D03*
X124064000Y-98285000D03*
X124064000Y-99085000D03*
X124064000Y-99885000D03*
D22*
X122364000Y-101585000D03*
X121564000Y-101585000D03*
X120764000Y-101585000D03*
X119964000Y-101585000D03*
X119164000Y-101585000D03*
X118364000Y-101585000D03*
X117564000Y-101585000D03*
X116764000Y-101585000D03*
X115964000Y-101585000D03*
X115164000Y-101585000D03*
X114364000Y-101585000D03*
D23*
X121119000Y-79418000D03*
X121119000Y-81618000D03*
X119419000Y-81618000D03*
X119419000Y-79418000D03*
D11*
X126111000Y-81391000D03*
X126111000Y-79391000D03*
D24*
X97210000Y-77470000D03*
D25*
X93710000Y-80170000D03*
D26*
X95560000Y-80170000D03*
X94910000Y-80170000D03*
X97510000Y-80170000D03*
X96860000Y-80170000D03*
X96210000Y-80170000D03*
D25*
X98710000Y-80170000D03*
D24*
X95210000Y-77470000D03*
D27*
X92710000Y-77470000D03*
X99710000Y-77470000D03*
D28*
X99110000Y-77470000D03*
X93310000Y-77470000D03*
D29*
X113645468Y-85617532D03*
X102235000Y-85598000D03*
X94996000Y-85598000D03*
X109347000Y-96520000D03*
X109347000Y-106172000D03*
X96012000Y-96774000D03*
X109220000Y-87630000D03*
D30*
X120412000Y-105791000D02*
X115046000Y-105791000D01*
X121293000Y-104785000D02*
X120412000Y-105666000D01*
X121418000Y-104785000D02*
X121293000Y-104785000D01*
X120412000Y-105666000D02*
X120412000Y-105791000D01*
X121564000Y-104639000D02*
X121418000Y-104785000D01*
X121564000Y-101585000D02*
X121564000Y-104639000D01*
X115164000Y-105673000D02*
X115046000Y-105791000D01*
X115164000Y-101585000D02*
X115164000Y-105673000D01*
X114908000Y-79418000D02*
X114808000Y-79518000D01*
X119419000Y-79418000D02*
X114908000Y-79418000D01*
X121346000Y-81391000D02*
X121119000Y-81618000D01*
X126111000Y-81391000D02*
X121346000Y-81391000D01*
X114792000Y-79502000D02*
X114808000Y-79518000D01*
X111125000Y-79502000D02*
X114792000Y-79502000D01*
X116764000Y-87054000D02*
X116764000Y-89054000D01*
X116764000Y-89054000D02*
X116764000Y-90185000D01*
X113970599Y-80527499D02*
X113792499Y-80705599D01*
X120331401Y-80527499D02*
X113970599Y-80527499D01*
X113792499Y-80705599D02*
X113792499Y-84082499D01*
X121119000Y-81315098D02*
X120331401Y-80527499D01*
X121119000Y-81618000D02*
X121119000Y-81315098D01*
X122933000Y-91885000D02*
X124064000Y-91885000D01*
X117333000Y-91885000D02*
X122933000Y-91885000D01*
X116764000Y-91316000D02*
X117333000Y-91885000D01*
X116764000Y-90185000D02*
X116764000Y-91316000D01*
X119419000Y-78337000D02*
X119419000Y-79418000D01*
X119428501Y-78327499D02*
X119419000Y-78337000D01*
X126875401Y-78327499D02*
X119428501Y-78327499D01*
X127580511Y-79032609D02*
X126875401Y-78327499D01*
X127580511Y-87712489D02*
X127580511Y-79032609D01*
X124064000Y-91229000D02*
X127580511Y-87712489D01*
X124064000Y-91885000D02*
X124064000Y-91229000D01*
X113657000Y-85606000D02*
X113645468Y-85617532D01*
X115316000Y-85606000D02*
X113657000Y-85606000D01*
X113792499Y-84082499D02*
X115316000Y-85606000D01*
X115316000Y-85606000D02*
X116764000Y-87054000D01*
X104275000Y-89535000D02*
X105156000Y-89535000D01*
X102235000Y-87495000D02*
X104275000Y-89535000D01*
X102235000Y-85598000D02*
X102235000Y-87495000D01*
X111533000Y-96685000D02*
X112664000Y-96685000D01*
X111300000Y-96685000D02*
X111533000Y-96685000D01*
X105156000Y-89535000D02*
X105156000Y-90541000D01*
X108071499Y-88519499D02*
X109103000Y-89551000D01*
X105165501Y-88519499D02*
X108071499Y-88519499D01*
X109103000Y-89551000D02*
X110109000Y-89551000D01*
X105156000Y-88529000D02*
X105165501Y-88519499D01*
X105156000Y-89535000D02*
X105156000Y-88529000D01*
X125134368Y-100550501D02*
X123029501Y-100550501D01*
X121573501Y-100444499D02*
X121564000Y-100454000D01*
X121564000Y-100454000D02*
X121564000Y-101585000D01*
X123029501Y-100550501D02*
X122923499Y-100444499D01*
X122923499Y-100444499D02*
X121573501Y-100444499D01*
X102171000Y-104449000D02*
X105109510Y-107387510D01*
X100890000Y-104449000D02*
X102171000Y-104449000D01*
X125134368Y-104896534D02*
X124841000Y-105189902D01*
X125134368Y-100550501D02*
X125134368Y-104896534D01*
X122643392Y-107387510D02*
X124841000Y-105189902D01*
X126096000Y-101788000D02*
X125134368Y-100826368D01*
X125134368Y-100826368D02*
X125134368Y-100550501D01*
X127127000Y-101788000D02*
X126096000Y-101788000D01*
X94910000Y-84946315D02*
X94910000Y-81226000D01*
X94910000Y-81226000D02*
X94910000Y-80170000D01*
X94996000Y-85032315D02*
X94910000Y-84946315D01*
X94996000Y-85598000D02*
X94996000Y-85032315D01*
X109357000Y-96510000D02*
X109347000Y-96520000D01*
X109357000Y-94742000D02*
X109357000Y-96510000D01*
X105156000Y-90541000D02*
X109357000Y-94742000D01*
X109357000Y-94742000D02*
X111300000Y-96685000D01*
X109347000Y-106737685D02*
X109347000Y-107387510D01*
X109347000Y-106172000D02*
X109347000Y-106737685D01*
X109347000Y-107387510D02*
X122643392Y-107387510D01*
X105109510Y-107387510D02*
X109347000Y-107387510D01*
X122364000Y-105743000D02*
X122412000Y-105791000D01*
X122364000Y-101585000D02*
X122364000Y-105743000D01*
X121224401Y-106806501D02*
X122364000Y-105666902D01*
X122364000Y-105666902D02*
X122364000Y-101585000D01*
X114233599Y-106806501D02*
X121224401Y-106806501D01*
X113708000Y-102716000D02*
X113708000Y-106280902D01*
X114364000Y-102060000D02*
X113708000Y-102716000D01*
X114364000Y-101585000D02*
X114364000Y-102060000D01*
X109037630Y-99094501D02*
X107719632Y-100412499D01*
X111523499Y-99094501D02*
X109037630Y-99094501D01*
X111533000Y-99085000D02*
X111523499Y-99094501D01*
X112664000Y-99085000D02*
X111533000Y-99085000D01*
X115964000Y-90185000D02*
X115964000Y-89054000D01*
X115964000Y-92916000D02*
X113795000Y-95085000D01*
X115989000Y-92685000D02*
X115964000Y-92710000D01*
X124064000Y-92685000D02*
X115989000Y-92685000D01*
X115964000Y-92710000D02*
X115964000Y-92916000D01*
X115964000Y-90185000D02*
X115964000Y-92710000D01*
X107719632Y-100412499D02*
X106045000Y-100412499D01*
X113795000Y-99085000D02*
X112664000Y-99085000D01*
X113804501Y-99075499D02*
X113795000Y-99085000D01*
X113804501Y-95094501D02*
X113804501Y-99075499D01*
X113795000Y-95085000D02*
X113804501Y-95094501D01*
X112664000Y-95085000D02*
X113795000Y-95085000D01*
X111736098Y-95085000D02*
X112664000Y-95085000D01*
X110109000Y-93457902D02*
X111736098Y-95085000D01*
X110109000Y-91551000D02*
X110109000Y-93457902D01*
X108892133Y-101585000D02*
X107719632Y-100412499D01*
X114364000Y-101585000D02*
X108892133Y-101585000D01*
X113046000Y-105791000D02*
X113218098Y-105791000D01*
X113218098Y-105791000D02*
X113919000Y-106491902D01*
X113919000Y-106491902D02*
X114233599Y-106806501D01*
X113708000Y-106280902D02*
X113919000Y-106491902D01*
X111125000Y-84410131D02*
X115964000Y-89249131D01*
X115964000Y-89249131D02*
X115964000Y-90185000D01*
X102406501Y-100330000D02*
X102489000Y-100412499D01*
X95946000Y-100330000D02*
X102406501Y-100330000D01*
X102489000Y-100412499D02*
X106045000Y-100412499D01*
X102462058Y-84201000D02*
X111125000Y-84201000D01*
X101444499Y-85218559D02*
X102462058Y-84201000D01*
X101444499Y-88986921D02*
X101444499Y-85218559D01*
X100012500Y-90418920D02*
X101444499Y-88986921D01*
X99568000Y-90418920D02*
X100012500Y-90418920D01*
X111125000Y-81502000D02*
X111125000Y-84201000D01*
X111125000Y-84201000D02*
X111125000Y-84410131D01*
D31*
X114908000Y-81618000D02*
X114808000Y-81518000D01*
X119419000Y-81618000D02*
X114908000Y-81618000D01*
X117564000Y-84427000D02*
X117564000Y-89181000D01*
X119419000Y-82572000D02*
X117564000Y-84427000D01*
X117564000Y-89181000D02*
X117564000Y-90185000D01*
X119419000Y-81618000D02*
X119419000Y-82572000D01*
X108315000Y-92540000D02*
X111660000Y-95885000D01*
X111660000Y-95885000D02*
X112664000Y-95885000D01*
X107156000Y-91381000D02*
X111660000Y-95885000D01*
X107156000Y-89535000D02*
X107156000Y-91381000D01*
X166347000Y-87628000D02*
X166497000Y-87628000D01*
X165643000Y-88332000D02*
X166347000Y-87628000D01*
X149005000Y-88332000D02*
X165643000Y-88332000D01*
X148301000Y-87628000D02*
X149005000Y-88332000D01*
X147447000Y-87628000D02*
X148301000Y-87628000D01*
X147447000Y-88332000D02*
X147447000Y-87628000D01*
X142294000Y-93485000D02*
X147447000Y-88332000D01*
X124064000Y-93485000D02*
X142294000Y-93485000D01*
X141767001Y-81046001D02*
X146578001Y-81046001D01*
X147447000Y-81915000D02*
X147447000Y-84328000D01*
X146578001Y-81046001D02*
X147447000Y-81915000D01*
X148301000Y-106678000D02*
X147447000Y-106678000D01*
X148546902Y-106923902D02*
X148301000Y-106678000D01*
X159859498Y-106923902D02*
X148546902Y-106923902D01*
X160105400Y-106678000D02*
X159859498Y-106923902D01*
X166497000Y-106678000D02*
X160105400Y-106678000D01*
X132985000Y-105179962D02*
X135628038Y-107823000D01*
X132985000Y-103802000D02*
X132985000Y-105179962D01*
X125068000Y-95885000D02*
X132985000Y-103802000D01*
X124064000Y-95885000D02*
X125068000Y-95885000D01*
X146593000Y-106678000D02*
X147447000Y-106678000D01*
X145448000Y-107823000D02*
X146593000Y-106678000D01*
X135628038Y-107823000D02*
X145448000Y-107823000D01*
X141767001Y-100103001D02*
X146204001Y-100103001D01*
X147447000Y-101346000D02*
X147447000Y-103378000D01*
X146204001Y-100103001D02*
X147447000Y-101346000D01*
X160824001Y-81046001D02*
X165460999Y-81046001D01*
X166497000Y-82082002D02*
X166497000Y-84328000D01*
X165460999Y-81046001D02*
X166497000Y-82082002D01*
X160824001Y-100103001D02*
X165381001Y-100103001D01*
X166497000Y-101219000D02*
X166497000Y-103378000D01*
X165381001Y-100103001D02*
X166497000Y-101219000D01*
D30*
X97510000Y-80170000D02*
X97510000Y-81381000D01*
X99568000Y-83439000D02*
X99568000Y-88011000D01*
X97510000Y-81381000D02*
X99568000Y-83439000D01*
D31*
X131249000Y-95085000D02*
X136767001Y-100603001D01*
X124064000Y-95085000D02*
X131249000Y-95085000D01*
X149506000Y-94285000D02*
X155824001Y-100603001D01*
X124064000Y-94285000D02*
X149506000Y-94285000D01*
X101207398Y-98285000D02*
X112664000Y-98285000D01*
X93764999Y-89619399D02*
X93764999Y-90842601D01*
X96050999Y-89553999D02*
X93830399Y-89553999D01*
X93764999Y-90842601D02*
X101207398Y-98285000D01*
X96728000Y-90231000D02*
X96050999Y-89553999D01*
X93830399Y-89553999D02*
X93764999Y-89619399D01*
X97028000Y-90231000D02*
X96728000Y-90231000D01*
X96860000Y-88163000D02*
X97028000Y-88331000D01*
X96860000Y-80170000D02*
X96860000Y-88163000D01*
X95042000Y-88331000D02*
X94742000Y-88331000D01*
X96210000Y-87163000D02*
X95042000Y-88331000D01*
X96210000Y-80170000D02*
X96210000Y-87163000D01*
X111660000Y-97485000D02*
X112664000Y-97485000D01*
X102296000Y-97485000D02*
X111660000Y-97485000D01*
X95042000Y-90231000D02*
X102296000Y-97485000D01*
X94742000Y-90231000D02*
X95042000Y-90231000D01*
X94046000Y-101234000D02*
X94046000Y-100330000D01*
X93462999Y-107271999D02*
X93462999Y-101817001D01*
X93462999Y-101817001D02*
X94046000Y-101234000D01*
X94340000Y-108149000D02*
X93462999Y-107271999D01*
X94690000Y-108149000D02*
X94340000Y-108149000D01*
X96012000Y-98064000D02*
X96012000Y-96774000D01*
X94046000Y-100030000D02*
X96012000Y-98064000D01*
X94046000Y-100330000D02*
X94046000Y-100030000D01*
X115164000Y-89181000D02*
X115164000Y-90185000D01*
X113613000Y-87630000D02*
X115164000Y-89181000D01*
X109220000Y-87630000D02*
X113613000Y-87630000D01*
X124067000Y-99888000D02*
X124064000Y-99885000D01*
X127127000Y-99888000D02*
X124067000Y-99888000D01*
X93310000Y-79770000D02*
X93710000Y-80170000D01*
X93310000Y-77470000D02*
X93310000Y-79770000D01*
X99110000Y-77470000D02*
X92710000Y-77470000D01*
X99110000Y-79770000D02*
X98710000Y-80170000D01*
X99110000Y-77470000D02*
X99110000Y-79770000D01*
X126084000Y-79418000D02*
X126111000Y-79391000D01*
X121119000Y-79418000D02*
X126084000Y-79418000D01*
X118364000Y-89181000D02*
X118364000Y-90185000D01*
X118437001Y-89107999D02*
X118364000Y-89181000D01*
X127063001Y-82152601D02*
X120107603Y-89107999D01*
X120107603Y-89107999D02*
X118437001Y-89107999D01*
X127063001Y-80629399D02*
X127063001Y-82152601D01*
X125851602Y-79418000D02*
X127063001Y-80629399D01*
X121119000Y-79418000D02*
X125851602Y-79418000D01*
G36*
X91832499Y-76242498D02*
G01*
X91678168Y-76430551D01*
X91563489Y-76645099D01*
X91492870Y-76877898D01*
X91475000Y-77059335D01*
X91475000Y-77880664D01*
X91492870Y-78062101D01*
X91563489Y-78294900D01*
X91678167Y-78509448D01*
X91832498Y-78697502D01*
X92020551Y-78851833D01*
X92235099Y-78966511D01*
X92467898Y-79037130D01*
X92548001Y-79045019D01*
X92548001Y-79461120D01*
X92504784Y-79525799D01*
X92402264Y-79773303D01*
X92350000Y-80036052D01*
X92350000Y-80303948D01*
X92402264Y-80566697D01*
X92504784Y-80814201D01*
X92653619Y-81036949D01*
X92843051Y-81226381D01*
X93065799Y-81375216D01*
X93313303Y-81477736D01*
X93576052Y-81530000D01*
X93843948Y-81530000D01*
X94106697Y-81477736D01*
X94354201Y-81375216D01*
X94357378Y-81373093D01*
X94409215Y-81407730D01*
X94524777Y-81455597D01*
X94647458Y-81480000D01*
X94651250Y-81480000D01*
X94810000Y-81321250D01*
X94810000Y-81163082D01*
X94829463Y-81199494D01*
X94908815Y-81296185D01*
X95005506Y-81375537D01*
X95115820Y-81434502D01*
X95126488Y-81437738D01*
X95168750Y-81480000D01*
X95172542Y-81480000D01*
X95228870Y-81468795D01*
X95235518Y-81470812D01*
X95360000Y-81483072D01*
X95448000Y-81483072D01*
X95448001Y-86847368D01*
X94952442Y-87342928D01*
X94092000Y-87342928D01*
X93967518Y-87355188D01*
X93847820Y-87391498D01*
X93737506Y-87450463D01*
X93640815Y-87529815D01*
X93561463Y-87626506D01*
X93502498Y-87736820D01*
X93466188Y-87856518D01*
X93453928Y-87981000D01*
X93453928Y-88681000D01*
X93466188Y-88805482D01*
X93486853Y-88873606D01*
X93405007Y-88917354D01*
X93288977Y-89012577D01*
X93265113Y-89041656D01*
X93252655Y-89054113D01*
X93223577Y-89077977D01*
X93197618Y-89109609D01*
X93128354Y-89194007D01*
X93093515Y-89259188D01*
X93057597Y-89326385D01*
X93014025Y-89470022D01*
X93002999Y-89581973D01*
X92999313Y-89619399D01*
X93002999Y-89656823D01*
X93003000Y-90805168D01*
X92999313Y-90842601D01*
X93014026Y-90991979D01*
X93057598Y-91135616D01*
X93128354Y-91267993D01*
X93187276Y-91339789D01*
X93223578Y-91384023D01*
X93252648Y-91407880D01*
X100642114Y-98797346D01*
X100665976Y-98826422D01*
X100739617Y-98886857D01*
X100782005Y-98921645D01*
X100832244Y-98948498D01*
X100914383Y-98992402D01*
X101058020Y-99035974D01*
X101169972Y-99047000D01*
X101169975Y-99047000D01*
X101207398Y-99050686D01*
X101244821Y-99047000D01*
X107917698Y-99047000D01*
X107377700Y-99586999D01*
X102767623Y-99586999D01*
X102723935Y-99563647D01*
X102568327Y-99516444D01*
X102447054Y-99504500D01*
X102447051Y-99504500D01*
X102406501Y-99500506D01*
X102365951Y-99504500D01*
X96906336Y-99504500D01*
X96885502Y-99435820D01*
X96826537Y-99325506D01*
X96747185Y-99228815D01*
X96650494Y-99149463D01*
X96540180Y-99090498D01*
X96420482Y-99054188D01*
X96296000Y-99041928D01*
X96111703Y-99041928D01*
X96524353Y-98629278D01*
X96553422Y-98605422D01*
X96590699Y-98560000D01*
X96648645Y-98489393D01*
X96693859Y-98404802D01*
X96719402Y-98357015D01*
X96762974Y-98213378D01*
X96774000Y-98101426D01*
X96774000Y-98101423D01*
X96777686Y-98064000D01*
X96774000Y-98026577D01*
X96774000Y-97475711D01*
X96815937Y-97433774D01*
X96929205Y-97264256D01*
X97007226Y-97075898D01*
X97047000Y-96875939D01*
X97047000Y-96672061D01*
X97007226Y-96472102D01*
X96929205Y-96283744D01*
X96815937Y-96114226D01*
X96671774Y-95970063D01*
X96502256Y-95856795D01*
X96313898Y-95778774D01*
X96113939Y-95739000D01*
X95910061Y-95739000D01*
X95710102Y-95778774D01*
X95521744Y-95856795D01*
X95352226Y-95970063D01*
X95208063Y-96114226D01*
X95094795Y-96283744D01*
X95016774Y-96472102D01*
X94977000Y-96672061D01*
X94977000Y-96875939D01*
X95016774Y-97075898D01*
X95094795Y-97264256D01*
X95208063Y-97433774D01*
X95250000Y-97475711D01*
X95250000Y-97748369D01*
X93956442Y-99041928D01*
X93696000Y-99041928D01*
X93571518Y-99054188D01*
X93451820Y-99090498D01*
X93341506Y-99149463D01*
X93244815Y-99228815D01*
X93165463Y-99325506D01*
X93106498Y-99435820D01*
X93070188Y-99555518D01*
X93057928Y-99680000D01*
X93057928Y-100980000D01*
X93070188Y-101104482D01*
X93076635Y-101125735D01*
X92950648Y-101251722D01*
X92921578Y-101275579D01*
X92897721Y-101304649D01*
X92897720Y-101304650D01*
X92826354Y-101391609D01*
X92755598Y-101523986D01*
X92712026Y-101667623D01*
X92697313Y-101817001D01*
X92701000Y-101854434D01*
X92700999Y-107234576D01*
X92697313Y-107271999D01*
X92700999Y-107309422D01*
X92700999Y-107309424D01*
X92712025Y-107421376D01*
X92755597Y-107565013D01*
X92785018Y-107620056D01*
X92826354Y-107697391D01*
X92847869Y-107723607D01*
X92921577Y-107813421D01*
X92950653Y-107837283D01*
X93151928Y-108038558D01*
X93151928Y-108699000D01*
X93164188Y-108823482D01*
X93200498Y-108943180D01*
X93259463Y-109053494D01*
X93338815Y-109150185D01*
X93435506Y-109229537D01*
X93545820Y-109288502D01*
X93665518Y-109324812D01*
X93790000Y-109337072D01*
X95590000Y-109337072D01*
X95714482Y-109324812D01*
X95834180Y-109288502D01*
X95944494Y-109229537D01*
X96041185Y-109150185D01*
X96120537Y-109053494D01*
X96179502Y-108943180D01*
X96215812Y-108823482D01*
X96228072Y-108699000D01*
X96228072Y-107599000D01*
X99351928Y-107599000D01*
X99351928Y-108699000D01*
X99364188Y-108823482D01*
X99400498Y-108943180D01*
X99459463Y-109053494D01*
X99538815Y-109150185D01*
X99635506Y-109229537D01*
X99745820Y-109288502D01*
X99865518Y-109324812D01*
X99990000Y-109337072D01*
X101790000Y-109337072D01*
X101914482Y-109324812D01*
X102034180Y-109288502D01*
X102144494Y-109229537D01*
X102241185Y-109150185D01*
X102320537Y-109053494D01*
X102379502Y-108943180D01*
X102415812Y-108823482D01*
X102428072Y-108699000D01*
X102428072Y-107599000D01*
X102415812Y-107474518D01*
X102379502Y-107354820D01*
X102320537Y-107244506D01*
X102241185Y-107147815D01*
X102144494Y-107068463D01*
X102034180Y-107009498D01*
X101914482Y-106973188D01*
X101790000Y-106960928D01*
X99990000Y-106960928D01*
X99865518Y-106973188D01*
X99745820Y-107009498D01*
X99635506Y-107068463D01*
X99538815Y-107147815D01*
X99459463Y-107244506D01*
X99400498Y-107354820D01*
X99364188Y-107474518D01*
X99351928Y-107599000D01*
X96228072Y-107599000D01*
X96215812Y-107474518D01*
X96179502Y-107354820D01*
X96120537Y-107244506D01*
X96041185Y-107147815D01*
X95944494Y-107068463D01*
X95834180Y-107009498D01*
X95714482Y-106973188D01*
X95590000Y-106960928D01*
X94229558Y-106960928D01*
X94224999Y-106956369D01*
X94224999Y-105637072D01*
X95590000Y-105637072D01*
X95714482Y-105624812D01*
X95834180Y-105588502D01*
X95944494Y-105529537D01*
X96041185Y-105450185D01*
X96120537Y-105353494D01*
X96179502Y-105243180D01*
X96215812Y-105123482D01*
X96228072Y-104999000D01*
X96228072Y-104734750D01*
X99355000Y-104734750D01*
X99355000Y-105061542D01*
X99379403Y-105184223D01*
X99427270Y-105299785D01*
X99496763Y-105403789D01*
X99585211Y-105492237D01*
X99689215Y-105561730D01*
X99804777Y-105609597D01*
X99927458Y-105634000D01*
X100604250Y-105634000D01*
X100763000Y-105475250D01*
X100763000Y-104576000D01*
X101017000Y-104576000D01*
X101017000Y-105475250D01*
X101175750Y-105634000D01*
X101852542Y-105634000D01*
X101975223Y-105609597D01*
X102090785Y-105561730D01*
X102194789Y-105492237D01*
X102283237Y-105403789D01*
X102352730Y-105299785D01*
X102400597Y-105184223D01*
X102425000Y-105061542D01*
X102425000Y-104734750D01*
X102266250Y-104576000D01*
X101017000Y-104576000D01*
X100763000Y-104576000D01*
X99513750Y-104576000D01*
X99355000Y-104734750D01*
X96228072Y-104734750D01*
X96228072Y-103899000D01*
X96221913Y-103836458D01*
X99355000Y-103836458D01*
X99355000Y-104163250D01*
X99513750Y-104322000D01*
X100763000Y-104322000D01*
X100763000Y-103422750D01*
X101017000Y-103422750D01*
X101017000Y-104322000D01*
X102266250Y-104322000D01*
X102425000Y-104163250D01*
X102425000Y-103836458D01*
X102400597Y-103713777D01*
X102352730Y-103598215D01*
X102283237Y-103494211D01*
X102194789Y-103405763D01*
X102090785Y-103336270D01*
X101975223Y-103288403D01*
X101852542Y-103264000D01*
X101175750Y-103264000D01*
X101017000Y-103422750D01*
X100763000Y-103422750D01*
X100604250Y-103264000D01*
X99927458Y-103264000D01*
X99804777Y-103288403D01*
X99689215Y-103336270D01*
X99585211Y-103405763D01*
X99496763Y-103494211D01*
X99427270Y-103598215D01*
X99379403Y-103713777D01*
X99355000Y-103836458D01*
X96221913Y-103836458D01*
X96215812Y-103774518D01*
X96179502Y-103654820D01*
X96120537Y-103544506D01*
X96041185Y-103447815D01*
X95944494Y-103368463D01*
X95834180Y-103309498D01*
X95714482Y-103273188D01*
X95590000Y-103260928D01*
X94224999Y-103260928D01*
X94224999Y-102132631D01*
X94558352Y-101799278D01*
X94587422Y-101775422D01*
X94639471Y-101712000D01*
X94682645Y-101659393D01*
X94753401Y-101527016D01*
X94753402Y-101527015D01*
X94761021Y-101501897D01*
X94847185Y-101431185D01*
X94926537Y-101334494D01*
X94985502Y-101224180D01*
X94996000Y-101189573D01*
X95006498Y-101224180D01*
X95065463Y-101334494D01*
X95144815Y-101431185D01*
X95241506Y-101510537D01*
X95351820Y-101569502D01*
X95471518Y-101605812D01*
X95596000Y-101618072D01*
X96296000Y-101618072D01*
X96420482Y-101605812D01*
X96540180Y-101569502D01*
X96650494Y-101510537D01*
X96747185Y-101431185D01*
X96826537Y-101334494D01*
X96885502Y-101224180D01*
X96906336Y-101155500D01*
X102127878Y-101155500D01*
X102171566Y-101178852D01*
X102327174Y-101226055D01*
X102448447Y-101237999D01*
X102448449Y-101237999D01*
X102488999Y-101241993D01*
X102529550Y-101237999D01*
X107377700Y-101237999D01*
X108279744Y-102140045D01*
X108305592Y-102171541D01*
X108337088Y-102197389D01*
X108337091Y-102197392D01*
X108431290Y-102274699D01*
X108522072Y-102323223D01*
X108574699Y-102351353D01*
X108730307Y-102398556D01*
X108851580Y-102410500D01*
X108851582Y-102410500D01*
X108892133Y-102414494D01*
X108932683Y-102410500D01*
X112938027Y-102410500D01*
X112894444Y-102554175D01*
X112885347Y-102646541D01*
X112878506Y-102716000D01*
X112882500Y-102756551D01*
X112882501Y-104527928D01*
X112546000Y-104527928D01*
X112421518Y-104540188D01*
X112301820Y-104576498D01*
X112191506Y-104635463D01*
X112094815Y-104714815D01*
X112015463Y-104811506D01*
X111956498Y-104921820D01*
X111920188Y-105041518D01*
X111907928Y-105166000D01*
X111907928Y-106416000D01*
X111920188Y-106540482D01*
X111956498Y-106660180D01*
X112015463Y-106770494D01*
X112094815Y-106867185D01*
X112191506Y-106946537D01*
X112301820Y-107005502D01*
X112421518Y-107041812D01*
X112546000Y-107054072D01*
X113313737Y-107054072D01*
X113363958Y-107104293D01*
X113363964Y-107104298D01*
X113621201Y-107361535D01*
X113647058Y-107393042D01*
X113772757Y-107496200D01*
X113916165Y-107572854D01*
X114071773Y-107620057D01*
X114193046Y-107632001D01*
X114193048Y-107632001D01*
X114233598Y-107635995D01*
X114274149Y-107632001D01*
X121183851Y-107632001D01*
X121224401Y-107635995D01*
X121264951Y-107632001D01*
X121264954Y-107632001D01*
X121386227Y-107620057D01*
X121541835Y-107572854D01*
X121685243Y-107496200D01*
X121810942Y-107393042D01*
X121836799Y-107361535D01*
X122144262Y-107054072D01*
X122912000Y-107054072D01*
X123036482Y-107041812D01*
X123156180Y-107005502D01*
X123266494Y-106946537D01*
X123363185Y-106867185D01*
X123442537Y-106770494D01*
X123501502Y-106660180D01*
X123537812Y-106540482D01*
X123550072Y-106416000D01*
X123550072Y-105166000D01*
X123537812Y-105041518D01*
X123501502Y-104921820D01*
X123442537Y-104811506D01*
X123363185Y-104714815D01*
X123266494Y-104635463D01*
X123189500Y-104594308D01*
X123189500Y-102652146D01*
X123228502Y-102579180D01*
X123264812Y-102459482D01*
X123277072Y-102335000D01*
X123277072Y-102073750D01*
X125842000Y-102073750D01*
X125842000Y-102200542D01*
X125866403Y-102323223D01*
X125914270Y-102438785D01*
X125983763Y-102542789D01*
X126072211Y-102631237D01*
X126176215Y-102700730D01*
X126291777Y-102748597D01*
X126414458Y-102773000D01*
X126841250Y-102773000D01*
X127000000Y-102614250D01*
X127000000Y-101915000D01*
X127254000Y-101915000D01*
X127254000Y-102614250D01*
X127412750Y-102773000D01*
X127839542Y-102773000D01*
X127962223Y-102748597D01*
X128077785Y-102700730D01*
X128181789Y-102631237D01*
X128270237Y-102542789D01*
X128339730Y-102438785D01*
X128387597Y-102323223D01*
X128412000Y-102200542D01*
X128412000Y-102073750D01*
X128253250Y-101915000D01*
X127254000Y-101915000D01*
X127000000Y-101915000D01*
X126000750Y-101915000D01*
X125842000Y-102073750D01*
X123277072Y-102073750D01*
X123277072Y-100835000D01*
X123273038Y-100794038D01*
X123314000Y-100798072D01*
X124814000Y-100798072D01*
X124938482Y-100785812D01*
X125058180Y-100749502D01*
X125168494Y-100690537D01*
X125217889Y-100650000D01*
X125993657Y-100650000D01*
X126025815Y-100689185D01*
X126122506Y-100768537D01*
X126232820Y-100827502D01*
X126266715Y-100837784D01*
X126176215Y-100875270D01*
X126072211Y-100944763D01*
X125983763Y-101033211D01*
X125914270Y-101137215D01*
X125866403Y-101252777D01*
X125842000Y-101375458D01*
X125842000Y-101502250D01*
X126000750Y-101661000D01*
X127000000Y-101661000D01*
X127000000Y-101641000D01*
X127254000Y-101641000D01*
X127254000Y-101661000D01*
X128253250Y-101661000D01*
X128412000Y-101502250D01*
X128412000Y-101375458D01*
X128387597Y-101252777D01*
X128339730Y-101137215D01*
X128270237Y-101033211D01*
X128181789Y-100944763D01*
X128077785Y-100875270D01*
X127987285Y-100837784D01*
X128021180Y-100827502D01*
X128131494Y-100768537D01*
X128228185Y-100689185D01*
X128307537Y-100592494D01*
X128366502Y-100482180D01*
X128402812Y-100362482D01*
X128408643Y-100303274D01*
X129413000Y-101307631D01*
X129413000Y-113919000D01*
X91960577Y-113919000D01*
X91349342Y-113796753D01*
X90737441Y-113551993D01*
X90377914Y-113312308D01*
X89766374Y-112700768D01*
X89523959Y-112215938D01*
X89281000Y-111608541D01*
X89281000Y-79006577D01*
X89403247Y-78395342D01*
X89646680Y-77786761D01*
X90012182Y-77299424D01*
X90501778Y-76809828D01*
X91358116Y-76320492D01*
X91859699Y-76220176D01*
X91832499Y-76242498D01*
X91832499Y-76242498D01*
G37*
X91832499Y-76242498D02*
X91678168Y-76430551D01*
X91563489Y-76645099D01*
X91492870Y-76877898D01*
X91475000Y-77059335D01*
X91475000Y-77880664D01*
X91492870Y-78062101D01*
X91563489Y-78294900D01*
X91678167Y-78509448D01*
X91832498Y-78697502D01*
X92020551Y-78851833D01*
X92235099Y-78966511D01*
X92467898Y-79037130D01*
X92548001Y-79045019D01*
X92548001Y-79461120D01*
X92504784Y-79525799D01*
X92402264Y-79773303D01*
X92350000Y-80036052D01*
X92350000Y-80303948D01*
X92402264Y-80566697D01*
X92504784Y-80814201D01*
X92653619Y-81036949D01*
X92843051Y-81226381D01*
X93065799Y-81375216D01*
X93313303Y-81477736D01*
X93576052Y-81530000D01*
X93843948Y-81530000D01*
X94106697Y-81477736D01*
X94354201Y-81375216D01*
X94357378Y-81373093D01*
X94409215Y-81407730D01*
X94524777Y-81455597D01*
X94647458Y-81480000D01*
X94651250Y-81480000D01*
X94810000Y-81321250D01*
X94810000Y-81163082D01*
X94829463Y-81199494D01*
X94908815Y-81296185D01*
X95005506Y-81375537D01*
X95115820Y-81434502D01*
X95126488Y-81437738D01*
X95168750Y-81480000D01*
X95172542Y-81480000D01*
X95228870Y-81468795D01*
X95235518Y-81470812D01*
X95360000Y-81483072D01*
X95448000Y-81483072D01*
X95448001Y-86847368D01*
X94952442Y-87342928D01*
X94092000Y-87342928D01*
X93967518Y-87355188D01*
X93847820Y-87391498D01*
X93737506Y-87450463D01*
X93640815Y-87529815D01*
X93561463Y-87626506D01*
X93502498Y-87736820D01*
X93466188Y-87856518D01*
X93453928Y-87981000D01*
X93453928Y-88681000D01*
X93466188Y-88805482D01*
X93486853Y-88873606D01*
X93405007Y-88917354D01*
X93288977Y-89012577D01*
X93265113Y-89041656D01*
X93252655Y-89054113D01*
X93223577Y-89077977D01*
X93197618Y-89109609D01*
X93128354Y-89194007D01*
X93093515Y-89259188D01*
X93057597Y-89326385D01*
X93014025Y-89470022D01*
X93002999Y-89581973D01*
X92999313Y-89619399D01*
X93002999Y-89656823D01*
X93003000Y-90805168D01*
X92999313Y-90842601D01*
X93014026Y-90991979D01*
X93057598Y-91135616D01*
X93128354Y-91267993D01*
X93187276Y-91339789D01*
X93223578Y-91384023D01*
X93252648Y-91407880D01*
X100642114Y-98797346D01*
X100665976Y-98826422D01*
X100739617Y-98886857D01*
X100782005Y-98921645D01*
X100832244Y-98948498D01*
X100914383Y-98992402D01*
X101058020Y-99035974D01*
X101169972Y-99047000D01*
X101169975Y-99047000D01*
X101207398Y-99050686D01*
X101244821Y-99047000D01*
X107917698Y-99047000D01*
X107377700Y-99586999D01*
X102767623Y-99586999D01*
X102723935Y-99563647D01*
X102568327Y-99516444D01*
X102447054Y-99504500D01*
X102447051Y-99504500D01*
X102406501Y-99500506D01*
X102365951Y-99504500D01*
X96906336Y-99504500D01*
X96885502Y-99435820D01*
X96826537Y-99325506D01*
X96747185Y-99228815D01*
X96650494Y-99149463D01*
X96540180Y-99090498D01*
X96420482Y-99054188D01*
X96296000Y-99041928D01*
X96111703Y-99041928D01*
X96524353Y-98629278D01*
X96553422Y-98605422D01*
X96590699Y-98560000D01*
X96648645Y-98489393D01*
X96693859Y-98404802D01*
X96719402Y-98357015D01*
X96762974Y-98213378D01*
X96774000Y-98101426D01*
X96774000Y-98101423D01*
X96777686Y-98064000D01*
X96774000Y-98026577D01*
X96774000Y-97475711D01*
X96815937Y-97433774D01*
X96929205Y-97264256D01*
X97007226Y-97075898D01*
X97047000Y-96875939D01*
X97047000Y-96672061D01*
X97007226Y-96472102D01*
X96929205Y-96283744D01*
X96815937Y-96114226D01*
X96671774Y-95970063D01*
X96502256Y-95856795D01*
X96313898Y-95778774D01*
X96113939Y-95739000D01*
X95910061Y-95739000D01*
X95710102Y-95778774D01*
X95521744Y-95856795D01*
X95352226Y-95970063D01*
X95208063Y-96114226D01*
X95094795Y-96283744D01*
X95016774Y-96472102D01*
X94977000Y-96672061D01*
X94977000Y-96875939D01*
X95016774Y-97075898D01*
X95094795Y-97264256D01*
X95208063Y-97433774D01*
X95250000Y-97475711D01*
X95250000Y-97748369D01*
X93956442Y-99041928D01*
X93696000Y-99041928D01*
X93571518Y-99054188D01*
X93451820Y-99090498D01*
X93341506Y-99149463D01*
X93244815Y-99228815D01*
X93165463Y-99325506D01*
X93106498Y-99435820D01*
X93070188Y-99555518D01*
X93057928Y-99680000D01*
X93057928Y-100980000D01*
X93070188Y-101104482D01*
X93076635Y-101125735D01*
X92950648Y-101251722D01*
X92921578Y-101275579D01*
X92897721Y-101304649D01*
X92897720Y-101304650D01*
X92826354Y-101391609D01*
X92755598Y-101523986D01*
X92712026Y-101667623D01*
X92697313Y-101817001D01*
X92701000Y-101854434D01*
X92700999Y-107234576D01*
X92697313Y-107271999D01*
X92700999Y-107309422D01*
X92700999Y-107309424D01*
X92712025Y-107421376D01*
X92755597Y-107565013D01*
X92785018Y-107620056D01*
X92826354Y-107697391D01*
X92847869Y-107723607D01*
X92921577Y-107813421D01*
X92950653Y-107837283D01*
X93151928Y-108038558D01*
X93151928Y-108699000D01*
X93164188Y-108823482D01*
X93200498Y-108943180D01*
X93259463Y-109053494D01*
X93338815Y-109150185D01*
X93435506Y-109229537D01*
X93545820Y-109288502D01*
X93665518Y-109324812D01*
X93790000Y-109337072D01*
X95590000Y-109337072D01*
X95714482Y-109324812D01*
X95834180Y-109288502D01*
X95944494Y-109229537D01*
X96041185Y-109150185D01*
X96120537Y-109053494D01*
X96179502Y-108943180D01*
X96215812Y-108823482D01*
X96228072Y-108699000D01*
X96228072Y-107599000D01*
X99351928Y-107599000D01*
X99351928Y-108699000D01*
X99364188Y-108823482D01*
X99400498Y-108943180D01*
X99459463Y-109053494D01*
X99538815Y-109150185D01*
X99635506Y-109229537D01*
X99745820Y-109288502D01*
X99865518Y-109324812D01*
X99990000Y-109337072D01*
X101790000Y-109337072D01*
X101914482Y-109324812D01*
X102034180Y-109288502D01*
X102144494Y-109229537D01*
X102241185Y-109150185D01*
X102320537Y-109053494D01*
X102379502Y-108943180D01*
X102415812Y-108823482D01*
X102428072Y-108699000D01*
X102428072Y-107599000D01*
X102415812Y-107474518D01*
X102379502Y-107354820D01*
X102320537Y-107244506D01*
X102241185Y-107147815D01*
X102144494Y-107068463D01*
X102034180Y-107009498D01*
X101914482Y-106973188D01*
X101790000Y-106960928D01*
X99990000Y-106960928D01*
X99865518Y-106973188D01*
X99745820Y-107009498D01*
X99635506Y-107068463D01*
X99538815Y-107147815D01*
X99459463Y-107244506D01*
X99400498Y-107354820D01*
X99364188Y-107474518D01*
X99351928Y-107599000D01*
X96228072Y-107599000D01*
X96215812Y-107474518D01*
X96179502Y-107354820D01*
X96120537Y-107244506D01*
X96041185Y-107147815D01*
X95944494Y-107068463D01*
X95834180Y-107009498D01*
X95714482Y-106973188D01*
X95590000Y-106960928D01*
X94229558Y-106960928D01*
X94224999Y-106956369D01*
X94224999Y-105637072D01*
X95590000Y-105637072D01*
X95714482Y-105624812D01*
X95834180Y-105588502D01*
X95944494Y-105529537D01*
X96041185Y-105450185D01*
X96120537Y-105353494D01*
X96179502Y-105243180D01*
X96215812Y-105123482D01*
X96228072Y-104999000D01*
X96228072Y-104734750D01*
X99355000Y-104734750D01*
X99355000Y-105061542D01*
X99379403Y-105184223D01*
X99427270Y-105299785D01*
X99496763Y-105403789D01*
X99585211Y-105492237D01*
X99689215Y-105561730D01*
X99804777Y-105609597D01*
X99927458Y-105634000D01*
X100604250Y-105634000D01*
X100763000Y-105475250D01*
X100763000Y-104576000D01*
X101017000Y-104576000D01*
X101017000Y-105475250D01*
X101175750Y-105634000D01*
X101852542Y-105634000D01*
X101975223Y-105609597D01*
X102090785Y-105561730D01*
X102194789Y-105492237D01*
X102283237Y-105403789D01*
X102352730Y-105299785D01*
X102400597Y-105184223D01*
X102425000Y-105061542D01*
X102425000Y-104734750D01*
X102266250Y-104576000D01*
X101017000Y-104576000D01*
X100763000Y-104576000D01*
X99513750Y-104576000D01*
X99355000Y-104734750D01*
X96228072Y-104734750D01*
X96228072Y-103899000D01*
X96221913Y-103836458D01*
X99355000Y-103836458D01*
X99355000Y-104163250D01*
X99513750Y-104322000D01*
X100763000Y-104322000D01*
X100763000Y-103422750D01*
X101017000Y-103422750D01*
X101017000Y-104322000D01*
X102266250Y-104322000D01*
X102425000Y-104163250D01*
X102425000Y-103836458D01*
X102400597Y-103713777D01*
X102352730Y-103598215D01*
X102283237Y-103494211D01*
X102194789Y-103405763D01*
X102090785Y-103336270D01*
X101975223Y-103288403D01*
X101852542Y-103264000D01*
X101175750Y-103264000D01*
X101017000Y-103422750D01*
X100763000Y-103422750D01*
X100604250Y-103264000D01*
X99927458Y-103264000D01*
X99804777Y-103288403D01*
X99689215Y-103336270D01*
X99585211Y-103405763D01*
X99496763Y-103494211D01*
X99427270Y-103598215D01*
X99379403Y-103713777D01*
X99355000Y-103836458D01*
X96221913Y-103836458D01*
X96215812Y-103774518D01*
X96179502Y-103654820D01*
X96120537Y-103544506D01*
X96041185Y-103447815D01*
X95944494Y-103368463D01*
X95834180Y-103309498D01*
X95714482Y-103273188D01*
X95590000Y-103260928D01*
X94224999Y-103260928D01*
X94224999Y-102132631D01*
X94558352Y-101799278D01*
X94587422Y-101775422D01*
X94639471Y-101712000D01*
X94682645Y-101659393D01*
X94753401Y-101527016D01*
X94753402Y-101527015D01*
X94761021Y-101501897D01*
X94847185Y-101431185D01*
X94926537Y-101334494D01*
X94985502Y-101224180D01*
X94996000Y-101189573D01*
X95006498Y-101224180D01*
X95065463Y-101334494D01*
X95144815Y-101431185D01*
X95241506Y-101510537D01*
X95351820Y-101569502D01*
X95471518Y-101605812D01*
X95596000Y-101618072D01*
X96296000Y-101618072D01*
X96420482Y-101605812D01*
X96540180Y-101569502D01*
X96650494Y-101510537D01*
X96747185Y-101431185D01*
X96826537Y-101334494D01*
X96885502Y-101224180D01*
X96906336Y-101155500D01*
X102127878Y-101155500D01*
X102171566Y-101178852D01*
X102327174Y-101226055D01*
X102448447Y-101237999D01*
X102448449Y-101237999D01*
X102488999Y-101241993D01*
X102529550Y-101237999D01*
X107377700Y-101237999D01*
X108279744Y-102140045D01*
X108305592Y-102171541D01*
X108337088Y-102197389D01*
X108337091Y-102197392D01*
X108431290Y-102274699D01*
X108522072Y-102323223D01*
X108574699Y-102351353D01*
X108730307Y-102398556D01*
X108851580Y-102410500D01*
X108851582Y-102410500D01*
X108892133Y-102414494D01*
X108932683Y-102410500D01*
X112938027Y-102410500D01*
X112894444Y-102554175D01*
X112885347Y-102646541D01*
X112878506Y-102716000D01*
X112882500Y-102756551D01*
X112882501Y-104527928D01*
X112546000Y-104527928D01*
X112421518Y-104540188D01*
X112301820Y-104576498D01*
X112191506Y-104635463D01*
X112094815Y-104714815D01*
X112015463Y-104811506D01*
X111956498Y-104921820D01*
X111920188Y-105041518D01*
X111907928Y-105166000D01*
X111907928Y-106416000D01*
X111920188Y-106540482D01*
X111956498Y-106660180D01*
X112015463Y-106770494D01*
X112094815Y-106867185D01*
X112191506Y-106946537D01*
X112301820Y-107005502D01*
X112421518Y-107041812D01*
X112546000Y-107054072D01*
X113313737Y-107054072D01*
X113363958Y-107104293D01*
X113363964Y-107104298D01*
X113621201Y-107361535D01*
X113647058Y-107393042D01*
X113772757Y-107496200D01*
X113916165Y-107572854D01*
X114071773Y-107620057D01*
X114193046Y-107632001D01*
X114193048Y-107632001D01*
X114233598Y-107635995D01*
X114274149Y-107632001D01*
X121183851Y-107632001D01*
X121224401Y-107635995D01*
X121264951Y-107632001D01*
X121264954Y-107632001D01*
X121386227Y-107620057D01*
X121541835Y-107572854D01*
X121685243Y-107496200D01*
X121810942Y-107393042D01*
X121836799Y-107361535D01*
X122144262Y-107054072D01*
X122912000Y-107054072D01*
X123036482Y-107041812D01*
X123156180Y-107005502D01*
X123266494Y-106946537D01*
X123363185Y-106867185D01*
X123442537Y-106770494D01*
X123501502Y-106660180D01*
X123537812Y-106540482D01*
X123550072Y-106416000D01*
X123550072Y-105166000D01*
X123537812Y-105041518D01*
X123501502Y-104921820D01*
X123442537Y-104811506D01*
X123363185Y-104714815D01*
X123266494Y-104635463D01*
X123189500Y-104594308D01*
X123189500Y-102652146D01*
X123228502Y-102579180D01*
X123264812Y-102459482D01*
X123277072Y-102335000D01*
X123277072Y-102073750D01*
X125842000Y-102073750D01*
X125842000Y-102200542D01*
X125866403Y-102323223D01*
X125914270Y-102438785D01*
X125983763Y-102542789D01*
X126072211Y-102631237D01*
X126176215Y-102700730D01*
X126291777Y-102748597D01*
X126414458Y-102773000D01*
X126841250Y-102773000D01*
X127000000Y-102614250D01*
X127000000Y-101915000D01*
X127254000Y-101915000D01*
X127254000Y-102614250D01*
X127412750Y-102773000D01*
X127839542Y-102773000D01*
X127962223Y-102748597D01*
X128077785Y-102700730D01*
X128181789Y-102631237D01*
X128270237Y-102542789D01*
X128339730Y-102438785D01*
X128387597Y-102323223D01*
X128412000Y-102200542D01*
X128412000Y-102073750D01*
X128253250Y-101915000D01*
X127254000Y-101915000D01*
X127000000Y-101915000D01*
X126000750Y-101915000D01*
X125842000Y-102073750D01*
X123277072Y-102073750D01*
X123277072Y-100835000D01*
X123273038Y-100794038D01*
X123314000Y-100798072D01*
X124814000Y-100798072D01*
X124938482Y-100785812D01*
X125058180Y-100749502D01*
X125168494Y-100690537D01*
X125217889Y-100650000D01*
X125993657Y-100650000D01*
X126025815Y-100689185D01*
X126122506Y-100768537D01*
X126232820Y-100827502D01*
X126266715Y-100837784D01*
X126176215Y-100875270D01*
X126072211Y-100944763D01*
X125983763Y-101033211D01*
X125914270Y-101137215D01*
X125866403Y-101252777D01*
X125842000Y-101375458D01*
X125842000Y-101502250D01*
X126000750Y-101661000D01*
X127000000Y-101661000D01*
X127000000Y-101641000D01*
X127254000Y-101641000D01*
X127254000Y-101661000D01*
X128253250Y-101661000D01*
X128412000Y-101502250D01*
X128412000Y-101375458D01*
X128387597Y-101252777D01*
X128339730Y-101137215D01*
X128270237Y-101033211D01*
X128181789Y-100944763D01*
X128077785Y-100875270D01*
X127987285Y-100837784D01*
X128021180Y-100827502D01*
X128131494Y-100768537D01*
X128228185Y-100689185D01*
X128307537Y-100592494D01*
X128366502Y-100482180D01*
X128402812Y-100362482D01*
X128408643Y-100303274D01*
X129413000Y-101307631D01*
X129413000Y-113919000D01*
X91960577Y-113919000D01*
X91349342Y-113796753D01*
X90737441Y-113551993D01*
X90377914Y-113312308D01*
X89766374Y-112700768D01*
X89523959Y-112215938D01*
X89281000Y-111608541D01*
X89281000Y-79006577D01*
X89403247Y-78395342D01*
X89646680Y-77786761D01*
X90012182Y-77299424D01*
X90501778Y-76809828D01*
X91358116Y-76320492D01*
X91859699Y-76220176D01*
X91832499Y-76242498D01*
G36*
X115237815Y-102786185D02*
G01*
X115334506Y-102865537D01*
X115357667Y-102877917D01*
X115449750Y-102970000D01*
X115501542Y-102970000D01*
X115557870Y-102958795D01*
X115564518Y-102960812D01*
X115689000Y-102973072D01*
X116239000Y-102973072D01*
X116363482Y-102960812D01*
X116364000Y-102960655D01*
X116364518Y-102960812D01*
X116489000Y-102973072D01*
X117039000Y-102973072D01*
X117163482Y-102960812D01*
X117164000Y-102960655D01*
X117164518Y-102960812D01*
X117289000Y-102973072D01*
X117839000Y-102973072D01*
X117963482Y-102960812D01*
X117964000Y-102960655D01*
X117964518Y-102960812D01*
X118089000Y-102973072D01*
X118639000Y-102973072D01*
X118763482Y-102960812D01*
X118764000Y-102960655D01*
X118764518Y-102960812D01*
X118889000Y-102973072D01*
X119439000Y-102973072D01*
X119563482Y-102960812D01*
X119564000Y-102960655D01*
X119564518Y-102960812D01*
X119689000Y-102973072D01*
X120239000Y-102973072D01*
X120363482Y-102960812D01*
X120364000Y-102960655D01*
X120364518Y-102960812D01*
X120489000Y-102973072D01*
X121039000Y-102973072D01*
X121163482Y-102960812D01*
X121170130Y-102958795D01*
X121226458Y-102970000D01*
X121278250Y-102970000D01*
X121370333Y-102877917D01*
X121393494Y-102865537D01*
X121436998Y-102829834D01*
X121436998Y-102970000D01*
X121538500Y-102970000D01*
X121538500Y-104651061D01*
X121460815Y-104714815D01*
X121413092Y-104772966D01*
X121405237Y-104761211D01*
X121316789Y-104672763D01*
X121212785Y-104603270D01*
X121097223Y-104555403D01*
X120974542Y-104531000D01*
X120697750Y-104531000D01*
X120539000Y-104689750D01*
X120539000Y-105664000D01*
X120559000Y-105664000D01*
X120559000Y-105918000D01*
X120539000Y-105918000D01*
X120539000Y-105938000D01*
X120285000Y-105938000D01*
X120285000Y-105918000D01*
X119435750Y-105918000D01*
X119372749Y-105981001D01*
X116085251Y-105981001D01*
X116022250Y-105918000D01*
X115173000Y-105918000D01*
X115173000Y-105938000D01*
X114919000Y-105938000D01*
X114919000Y-105918000D01*
X114899000Y-105918000D01*
X114899000Y-105664000D01*
X114919000Y-105664000D01*
X114919000Y-104689750D01*
X115173000Y-104689750D01*
X115173000Y-105664000D01*
X116022250Y-105664000D01*
X116181000Y-105505250D01*
X116181000Y-105103458D01*
X119277000Y-105103458D01*
X119277000Y-105505250D01*
X119435750Y-105664000D01*
X120285000Y-105664000D01*
X120285000Y-104689750D01*
X120126250Y-104531000D01*
X119849458Y-104531000D01*
X119726777Y-104555403D01*
X119611215Y-104603270D01*
X119507211Y-104672763D01*
X119418763Y-104761211D01*
X119349270Y-104865215D01*
X119301403Y-104980777D01*
X119277000Y-105103458D01*
X116181000Y-105103458D01*
X116156597Y-104980777D01*
X116108730Y-104865215D01*
X116039237Y-104761211D01*
X115950789Y-104672763D01*
X115846785Y-104603270D01*
X115731223Y-104555403D01*
X115608542Y-104531000D01*
X115331750Y-104531000D01*
X115173000Y-104689750D01*
X114919000Y-104689750D01*
X114760250Y-104531000D01*
X114533500Y-104531000D01*
X114533500Y-103057932D01*
X114618360Y-102973072D01*
X114639000Y-102973072D01*
X114763482Y-102960812D01*
X114770130Y-102958795D01*
X114826458Y-102970000D01*
X114878250Y-102970000D01*
X114970333Y-102877917D01*
X114993494Y-102865537D01*
X115090185Y-102786185D01*
X115164000Y-102696241D01*
X115237815Y-102786185D01*
X115237815Y-102786185D01*
G37*
X115237815Y-102786185D02*
X115334506Y-102865537D01*
X115357667Y-102877917D01*
X115449750Y-102970000D01*
X115501542Y-102970000D01*
X115557870Y-102958795D01*
X115564518Y-102960812D01*
X115689000Y-102973072D01*
X116239000Y-102973072D01*
X116363482Y-102960812D01*
X116364000Y-102960655D01*
X116364518Y-102960812D01*
X116489000Y-102973072D01*
X117039000Y-102973072D01*
X117163482Y-102960812D01*
X117164000Y-102960655D01*
X117164518Y-102960812D01*
X117289000Y-102973072D01*
X117839000Y-102973072D01*
X117963482Y-102960812D01*
X117964000Y-102960655D01*
X117964518Y-102960812D01*
X118089000Y-102973072D01*
X118639000Y-102973072D01*
X118763482Y-102960812D01*
X118764000Y-102960655D01*
X118764518Y-102960812D01*
X118889000Y-102973072D01*
X119439000Y-102973072D01*
X119563482Y-102960812D01*
X119564000Y-102960655D01*
X119564518Y-102960812D01*
X119689000Y-102973072D01*
X120239000Y-102973072D01*
X120363482Y-102960812D01*
X120364000Y-102960655D01*
X120364518Y-102960812D01*
X120489000Y-102973072D01*
X121039000Y-102973072D01*
X121163482Y-102960812D01*
X121170130Y-102958795D01*
X121226458Y-102970000D01*
X121278250Y-102970000D01*
X121370333Y-102877917D01*
X121393494Y-102865537D01*
X121436998Y-102829834D01*
X121436998Y-102970000D01*
X121538500Y-102970000D01*
X121538500Y-104651061D01*
X121460815Y-104714815D01*
X121413092Y-104772966D01*
X121405237Y-104761211D01*
X121316789Y-104672763D01*
X121212785Y-104603270D01*
X121097223Y-104555403D01*
X120974542Y-104531000D01*
X120697750Y-104531000D01*
X120539000Y-104689750D01*
X120539000Y-105664000D01*
X120559000Y-105664000D01*
X120559000Y-105918000D01*
X120539000Y-105918000D01*
X120539000Y-105938000D01*
X120285000Y-105938000D01*
X120285000Y-105918000D01*
X119435750Y-105918000D01*
X119372749Y-105981001D01*
X116085251Y-105981001D01*
X116022250Y-105918000D01*
X115173000Y-105918000D01*
X115173000Y-105938000D01*
X114919000Y-105938000D01*
X114919000Y-105918000D01*
X114899000Y-105918000D01*
X114899000Y-105664000D01*
X114919000Y-105664000D01*
X114919000Y-104689750D01*
X115173000Y-104689750D01*
X115173000Y-105664000D01*
X116022250Y-105664000D01*
X116181000Y-105505250D01*
X116181000Y-105103458D01*
X119277000Y-105103458D01*
X119277000Y-105505250D01*
X119435750Y-105664000D01*
X120285000Y-105664000D01*
X120285000Y-104689750D01*
X120126250Y-104531000D01*
X119849458Y-104531000D01*
X119726777Y-104555403D01*
X119611215Y-104603270D01*
X119507211Y-104672763D01*
X119418763Y-104761211D01*
X119349270Y-104865215D01*
X119301403Y-104980777D01*
X119277000Y-105103458D01*
X116181000Y-105103458D01*
X116156597Y-104980777D01*
X116108730Y-104865215D01*
X116039237Y-104761211D01*
X115950789Y-104672763D01*
X115846785Y-104603270D01*
X115731223Y-104555403D01*
X115608542Y-104531000D01*
X115331750Y-104531000D01*
X115173000Y-104689750D01*
X114919000Y-104689750D01*
X114760250Y-104531000D01*
X114533500Y-104531000D01*
X114533500Y-103057932D01*
X114618360Y-102973072D01*
X114639000Y-102973072D01*
X114763482Y-102960812D01*
X114770130Y-102958795D01*
X114826458Y-102970000D01*
X114878250Y-102970000D01*
X114970333Y-102877917D01*
X114993494Y-102865537D01*
X115090185Y-102786185D01*
X115164000Y-102696241D01*
X115237815Y-102786185D01*
G36*
X122675928Y-93760000D02*
G01*
X122688188Y-93884482D01*
X122688345Y-93885000D01*
X122688188Y-93885518D01*
X122675928Y-94010000D01*
X122675928Y-94560000D01*
X122688188Y-94684482D01*
X122688345Y-94685000D01*
X122688188Y-94685518D01*
X122675928Y-94810000D01*
X122675928Y-95360000D01*
X122688188Y-95484482D01*
X122688345Y-95485000D01*
X122688188Y-95485518D01*
X122675928Y-95610000D01*
X122675928Y-96160000D01*
X122688188Y-96284482D01*
X122688345Y-96285000D01*
X122688188Y-96285518D01*
X122675928Y-96410000D01*
X122675928Y-96960000D01*
X122688188Y-97084482D01*
X122688345Y-97085000D01*
X122688188Y-97085518D01*
X122675928Y-97210000D01*
X122675928Y-97760000D01*
X122688188Y-97884482D01*
X122688345Y-97885000D01*
X122688188Y-97885518D01*
X122675928Y-98010000D01*
X122675928Y-98560000D01*
X122688188Y-98684482D01*
X122688345Y-98685000D01*
X122688188Y-98685518D01*
X122675928Y-98810000D01*
X122675928Y-99360000D01*
X122688188Y-99484482D01*
X122688345Y-99485000D01*
X122688188Y-99485518D01*
X122675928Y-99610000D01*
X122675928Y-100160000D01*
X122679962Y-100200962D01*
X122639000Y-100196928D01*
X122089000Y-100196928D01*
X121964518Y-100209188D01*
X121957870Y-100211205D01*
X121901542Y-100200000D01*
X121849750Y-100200000D01*
X121757667Y-100292083D01*
X121734506Y-100304463D01*
X121637815Y-100383815D01*
X121564000Y-100473759D01*
X121490185Y-100383815D01*
X121393494Y-100304463D01*
X121370333Y-100292083D01*
X121278250Y-100200000D01*
X121226458Y-100200000D01*
X121170130Y-100211205D01*
X121163482Y-100209188D01*
X121039000Y-100196928D01*
X120489000Y-100196928D01*
X120364518Y-100209188D01*
X120364000Y-100209345D01*
X120363482Y-100209188D01*
X120239000Y-100196928D01*
X119689000Y-100196928D01*
X119564518Y-100209188D01*
X119564000Y-100209345D01*
X119563482Y-100209188D01*
X119439000Y-100196928D01*
X118889000Y-100196928D01*
X118764518Y-100209188D01*
X118764000Y-100209345D01*
X118763482Y-100209188D01*
X118639000Y-100196928D01*
X118089000Y-100196928D01*
X117964518Y-100209188D01*
X117964000Y-100209345D01*
X117963482Y-100209188D01*
X117839000Y-100196928D01*
X117289000Y-100196928D01*
X117164518Y-100209188D01*
X117164000Y-100209345D01*
X117163482Y-100209188D01*
X117039000Y-100196928D01*
X116489000Y-100196928D01*
X116364518Y-100209188D01*
X116364000Y-100209345D01*
X116363482Y-100209188D01*
X116239000Y-100196928D01*
X115689000Y-100196928D01*
X115564518Y-100209188D01*
X115557870Y-100211205D01*
X115501542Y-100200000D01*
X115449750Y-100200000D01*
X115357667Y-100292083D01*
X115334506Y-100304463D01*
X115237815Y-100383815D01*
X115164000Y-100473759D01*
X115090185Y-100383815D01*
X114993494Y-100304463D01*
X114970333Y-100292083D01*
X114878250Y-100200000D01*
X114826458Y-100200000D01*
X114770130Y-100211205D01*
X114763482Y-100209188D01*
X114639000Y-100196928D01*
X114089000Y-100196928D01*
X114048038Y-100200962D01*
X114052072Y-100160000D01*
X114052072Y-99869664D01*
X114112434Y-99851353D01*
X114255842Y-99774699D01*
X114381541Y-99671541D01*
X114385824Y-99666323D01*
X114391042Y-99662040D01*
X114494200Y-99536341D01*
X114570854Y-99392933D01*
X114618057Y-99237325D01*
X114630001Y-99116052D01*
X114630001Y-99116043D01*
X114633994Y-99075500D01*
X114630001Y-99034957D01*
X114630001Y-95417431D01*
X116519039Y-93528394D01*
X116540843Y-93510500D01*
X122675928Y-93510500D01*
X122675928Y-93760000D01*
X122675928Y-93760000D01*
G37*
X122675928Y-93760000D02*
X122688188Y-93884482D01*
X122688345Y-93885000D01*
X122688188Y-93885518D01*
X122675928Y-94010000D01*
X122675928Y-94560000D01*
X122688188Y-94684482D01*
X122688345Y-94685000D01*
X122688188Y-94685518D01*
X122675928Y-94810000D01*
X122675928Y-95360000D01*
X122688188Y-95484482D01*
X122688345Y-95485000D01*
X122688188Y-95485518D01*
X122675928Y-95610000D01*
X122675928Y-96160000D01*
X122688188Y-96284482D01*
X122688345Y-96285000D01*
X122688188Y-96285518D01*
X122675928Y-96410000D01*
X122675928Y-96960000D01*
X122688188Y-97084482D01*
X122688345Y-97085000D01*
X122688188Y-97085518D01*
X122675928Y-97210000D01*
X122675928Y-97760000D01*
X122688188Y-97884482D01*
X122688345Y-97885000D01*
X122688188Y-97885518D01*
X122675928Y-98010000D01*
X122675928Y-98560000D01*
X122688188Y-98684482D01*
X122688345Y-98685000D01*
X122688188Y-98685518D01*
X122675928Y-98810000D01*
X122675928Y-99360000D01*
X122688188Y-99484482D01*
X122688345Y-99485000D01*
X122688188Y-99485518D01*
X122675928Y-99610000D01*
X122675928Y-100160000D01*
X122679962Y-100200962D01*
X122639000Y-100196928D01*
X122089000Y-100196928D01*
X121964518Y-100209188D01*
X121957870Y-100211205D01*
X121901542Y-100200000D01*
X121849750Y-100200000D01*
X121757667Y-100292083D01*
X121734506Y-100304463D01*
X121637815Y-100383815D01*
X121564000Y-100473759D01*
X121490185Y-100383815D01*
X121393494Y-100304463D01*
X121370333Y-100292083D01*
X121278250Y-100200000D01*
X121226458Y-100200000D01*
X121170130Y-100211205D01*
X121163482Y-100209188D01*
X121039000Y-100196928D01*
X120489000Y-100196928D01*
X120364518Y-100209188D01*
X120364000Y-100209345D01*
X120363482Y-100209188D01*
X120239000Y-100196928D01*
X119689000Y-100196928D01*
X119564518Y-100209188D01*
X119564000Y-100209345D01*
X119563482Y-100209188D01*
X119439000Y-100196928D01*
X118889000Y-100196928D01*
X118764518Y-100209188D01*
X118764000Y-100209345D01*
X118763482Y-100209188D01*
X118639000Y-100196928D01*
X118089000Y-100196928D01*
X117964518Y-100209188D01*
X117964000Y-100209345D01*
X117963482Y-100209188D01*
X117839000Y-100196928D01*
X117289000Y-100196928D01*
X117164518Y-100209188D01*
X117164000Y-100209345D01*
X117163482Y-100209188D01*
X117039000Y-100196928D01*
X116489000Y-100196928D01*
X116364518Y-100209188D01*
X116364000Y-100209345D01*
X116363482Y-100209188D01*
X116239000Y-100196928D01*
X115689000Y-100196928D01*
X115564518Y-100209188D01*
X115557870Y-100211205D01*
X115501542Y-100200000D01*
X115449750Y-100200000D01*
X115357667Y-100292083D01*
X115334506Y-100304463D01*
X115237815Y-100383815D01*
X115164000Y-100473759D01*
X115090185Y-100383815D01*
X114993494Y-100304463D01*
X114970333Y-100292083D01*
X114878250Y-100200000D01*
X114826458Y-100200000D01*
X114770130Y-100211205D01*
X114763482Y-100209188D01*
X114639000Y-100196928D01*
X114089000Y-100196928D01*
X114048038Y-100200962D01*
X114052072Y-100160000D01*
X114052072Y-99869664D01*
X114112434Y-99851353D01*
X114255842Y-99774699D01*
X114381541Y-99671541D01*
X114385824Y-99666323D01*
X114391042Y-99662040D01*
X114494200Y-99536341D01*
X114570854Y-99392933D01*
X114618057Y-99237325D01*
X114630001Y-99116052D01*
X114630001Y-99116043D01*
X114633994Y-99075500D01*
X114630001Y-99034957D01*
X114630001Y-95417431D01*
X116519039Y-93528394D01*
X116540843Y-93510500D01*
X122675928Y-93510500D01*
X122675928Y-93760000D01*
G36*
X112415437Y-86868000D02*
G01*
X109921711Y-86868000D01*
X109879774Y-86826063D01*
X109710256Y-86712795D01*
X109521898Y-86634774D01*
X109321939Y-86595000D01*
X109118061Y-86595000D01*
X108918102Y-86634774D01*
X108729744Y-86712795D01*
X108560226Y-86826063D01*
X108416063Y-86970226D01*
X108302795Y-87139744D01*
X108224774Y-87328102D01*
X108185000Y-87528061D01*
X108185000Y-87731939D01*
X108224774Y-87931898D01*
X108302795Y-88120256D01*
X108416063Y-88289774D01*
X108560226Y-88433937D01*
X108729744Y-88547205D01*
X108918102Y-88625226D01*
X108996211Y-88640763D01*
X108990763Y-88646211D01*
X108921270Y-88750215D01*
X108873403Y-88865777D01*
X108849000Y-88988458D01*
X108849000Y-89265250D01*
X109007750Y-89424000D01*
X109982000Y-89424000D01*
X109982000Y-88574750D01*
X110236000Y-88574750D01*
X110236000Y-89424000D01*
X111210250Y-89424000D01*
X111369000Y-89265250D01*
X111369000Y-88988458D01*
X111344597Y-88865777D01*
X111296730Y-88750215D01*
X111227237Y-88646211D01*
X111138789Y-88557763D01*
X111034785Y-88488270D01*
X110919223Y-88440403D01*
X110796542Y-88416000D01*
X110394750Y-88416000D01*
X110236000Y-88574750D01*
X109982000Y-88574750D01*
X109856643Y-88449393D01*
X109879774Y-88433937D01*
X109921711Y-88392000D01*
X113297370Y-88392000D01*
X113783594Y-88878224D01*
X113734506Y-88904463D01*
X113637815Y-88983815D01*
X113558463Y-89080506D01*
X113499498Y-89190820D01*
X113463188Y-89310518D01*
X113450928Y-89435000D01*
X113450928Y-90935000D01*
X113454962Y-90975962D01*
X113414000Y-90971928D01*
X111914000Y-90971928D01*
X111789518Y-90984188D01*
X111669820Y-91020498D01*
X111559506Y-91079463D01*
X111462815Y-91158815D01*
X111383463Y-91255506D01*
X111372072Y-91276817D01*
X111372072Y-91051000D01*
X111359812Y-90926518D01*
X111323502Y-90806820D01*
X111264537Y-90696506D01*
X111185185Y-90599815D01*
X111127034Y-90552092D01*
X111138789Y-90544237D01*
X111227237Y-90455789D01*
X111296730Y-90351785D01*
X111344597Y-90236223D01*
X111369000Y-90113542D01*
X111369000Y-89836750D01*
X111210250Y-89678000D01*
X110236000Y-89678000D01*
X110236000Y-89698000D01*
X109982000Y-89698000D01*
X109982000Y-89678000D01*
X109007750Y-89678000D01*
X108849000Y-89836750D01*
X108849000Y-90113542D01*
X108873403Y-90236223D01*
X108921270Y-90351785D01*
X108990763Y-90455789D01*
X109079211Y-90544237D01*
X109090966Y-90552092D01*
X109032815Y-90599815D01*
X108953463Y-90696506D01*
X108894498Y-90806820D01*
X108858188Y-90926518D01*
X108845928Y-91051000D01*
X108845928Y-91993298D01*
X107918000Y-91065370D01*
X107918000Y-90739977D01*
X108010494Y-90690537D01*
X108107185Y-90611185D01*
X108186537Y-90514494D01*
X108245502Y-90404180D01*
X108281812Y-90284482D01*
X108294072Y-90160000D01*
X108294072Y-88910000D01*
X108281812Y-88785518D01*
X108245502Y-88665820D01*
X108186537Y-88555506D01*
X108107185Y-88458815D01*
X108010494Y-88379463D01*
X107900180Y-88320498D01*
X107780482Y-88284188D01*
X107656000Y-88271928D01*
X106656000Y-88271928D01*
X106531518Y-88284188D01*
X106411820Y-88320498D01*
X106301506Y-88379463D01*
X106204815Y-88458815D01*
X106157092Y-88516966D01*
X106149237Y-88505211D01*
X106060789Y-88416763D01*
X105956785Y-88347270D01*
X105841223Y-88299403D01*
X105718542Y-88275000D01*
X105441750Y-88275000D01*
X105283000Y-88433750D01*
X105283000Y-89408000D01*
X105303000Y-89408000D01*
X105303000Y-89662000D01*
X105283000Y-89662000D01*
X105283000Y-90636250D01*
X105441750Y-90795000D01*
X105718542Y-90795000D01*
X105841223Y-90770597D01*
X105956785Y-90722730D01*
X106060789Y-90653237D01*
X106149237Y-90564789D01*
X106157092Y-90553034D01*
X106204815Y-90611185D01*
X106301506Y-90690537D01*
X106394001Y-90739977D01*
X106394001Y-91343567D01*
X106390314Y-91381000D01*
X106405027Y-91530378D01*
X106448599Y-91674015D01*
X106519355Y-91806392D01*
X106590721Y-91893351D01*
X106614579Y-91922422D01*
X106643649Y-91946279D01*
X111094720Y-96397351D01*
X111118578Y-96426422D01*
X111147648Y-96450279D01*
X111234607Y-96521645D01*
X111302623Y-96558000D01*
X111366985Y-96592402D01*
X111482700Y-96627504D01*
X111552759Y-96685000D01*
X111506456Y-96723000D01*
X102611631Y-96723000D01*
X97107702Y-91219072D01*
X97678000Y-91219072D01*
X97802482Y-91206812D01*
X97922180Y-91170502D01*
X97941566Y-91160140D01*
X97963768Y-91233330D01*
X98022733Y-91343644D01*
X98102085Y-91440335D01*
X98198776Y-91519687D01*
X98309090Y-91578652D01*
X98428788Y-91614962D01*
X98553270Y-91627222D01*
X100582730Y-91627222D01*
X100707212Y-91614962D01*
X100826910Y-91578652D01*
X100937224Y-91519687D01*
X101033915Y-91440335D01*
X101113267Y-91343644D01*
X101172232Y-91233330D01*
X101208542Y-91113632D01*
X101220802Y-90989150D01*
X101220802Y-90378050D01*
X101778102Y-89820750D01*
X104021000Y-89820750D01*
X104021000Y-90222542D01*
X104045403Y-90345223D01*
X104093270Y-90460785D01*
X104162763Y-90564789D01*
X104251211Y-90653237D01*
X104355215Y-90722730D01*
X104470777Y-90770597D01*
X104593458Y-90795000D01*
X104870250Y-90795000D01*
X105029000Y-90636250D01*
X105029000Y-89662000D01*
X104179750Y-89662000D01*
X104021000Y-89820750D01*
X101778102Y-89820750D01*
X101999540Y-89599313D01*
X102031040Y-89573462D01*
X102134198Y-89447763D01*
X102210852Y-89304355D01*
X102258055Y-89148747D01*
X102269999Y-89027474D01*
X102269999Y-89027465D01*
X102273992Y-88986922D01*
X102269999Y-88946379D01*
X102269999Y-88847458D01*
X104021000Y-88847458D01*
X104021000Y-89249250D01*
X104179750Y-89408000D01*
X105029000Y-89408000D01*
X105029000Y-88433750D01*
X104870250Y-88275000D01*
X104593458Y-88275000D01*
X104470777Y-88299403D01*
X104355215Y-88347270D01*
X104251211Y-88416763D01*
X104162763Y-88505211D01*
X104093270Y-88609215D01*
X104045403Y-88724777D01*
X104021000Y-88847458D01*
X102269999Y-88847458D01*
X102269999Y-85560492D01*
X102803991Y-85026500D01*
X110573937Y-85026500D01*
X112415437Y-86868000D01*
X112415437Y-86868000D01*
G37*
X112415437Y-86868000D02*
X109921711Y-86868000D01*
X109879774Y-86826063D01*
X109710256Y-86712795D01*
X109521898Y-86634774D01*
X109321939Y-86595000D01*
X109118061Y-86595000D01*
X108918102Y-86634774D01*
X108729744Y-86712795D01*
X108560226Y-86826063D01*
X108416063Y-86970226D01*
X108302795Y-87139744D01*
X108224774Y-87328102D01*
X108185000Y-87528061D01*
X108185000Y-87731939D01*
X108224774Y-87931898D01*
X108302795Y-88120256D01*
X108416063Y-88289774D01*
X108560226Y-88433937D01*
X108729744Y-88547205D01*
X108918102Y-88625226D01*
X108996211Y-88640763D01*
X108990763Y-88646211D01*
X108921270Y-88750215D01*
X108873403Y-88865777D01*
X108849000Y-88988458D01*
X108849000Y-89265250D01*
X109007750Y-89424000D01*
X109982000Y-89424000D01*
X109982000Y-88574750D01*
X110236000Y-88574750D01*
X110236000Y-89424000D01*
X111210250Y-89424000D01*
X111369000Y-89265250D01*
X111369000Y-88988458D01*
X111344597Y-88865777D01*
X111296730Y-88750215D01*
X111227237Y-88646211D01*
X111138789Y-88557763D01*
X111034785Y-88488270D01*
X110919223Y-88440403D01*
X110796542Y-88416000D01*
X110394750Y-88416000D01*
X110236000Y-88574750D01*
X109982000Y-88574750D01*
X109856643Y-88449393D01*
X109879774Y-88433937D01*
X109921711Y-88392000D01*
X113297370Y-88392000D01*
X113783594Y-88878224D01*
X113734506Y-88904463D01*
X113637815Y-88983815D01*
X113558463Y-89080506D01*
X113499498Y-89190820D01*
X113463188Y-89310518D01*
X113450928Y-89435000D01*
X113450928Y-90935000D01*
X113454962Y-90975962D01*
X113414000Y-90971928D01*
X111914000Y-90971928D01*
X111789518Y-90984188D01*
X111669820Y-91020498D01*
X111559506Y-91079463D01*
X111462815Y-91158815D01*
X111383463Y-91255506D01*
X111372072Y-91276817D01*
X111372072Y-91051000D01*
X111359812Y-90926518D01*
X111323502Y-90806820D01*
X111264537Y-90696506D01*
X111185185Y-90599815D01*
X111127034Y-90552092D01*
X111138789Y-90544237D01*
X111227237Y-90455789D01*
X111296730Y-90351785D01*
X111344597Y-90236223D01*
X111369000Y-90113542D01*
X111369000Y-89836750D01*
X111210250Y-89678000D01*
X110236000Y-89678000D01*
X110236000Y-89698000D01*
X109982000Y-89698000D01*
X109982000Y-89678000D01*
X109007750Y-89678000D01*
X108849000Y-89836750D01*
X108849000Y-90113542D01*
X108873403Y-90236223D01*
X108921270Y-90351785D01*
X108990763Y-90455789D01*
X109079211Y-90544237D01*
X109090966Y-90552092D01*
X109032815Y-90599815D01*
X108953463Y-90696506D01*
X108894498Y-90806820D01*
X108858188Y-90926518D01*
X108845928Y-91051000D01*
X108845928Y-91993298D01*
X107918000Y-91065370D01*
X107918000Y-90739977D01*
X108010494Y-90690537D01*
X108107185Y-90611185D01*
X108186537Y-90514494D01*
X108245502Y-90404180D01*
X108281812Y-90284482D01*
X108294072Y-90160000D01*
X108294072Y-88910000D01*
X108281812Y-88785518D01*
X108245502Y-88665820D01*
X108186537Y-88555506D01*
X108107185Y-88458815D01*
X108010494Y-88379463D01*
X107900180Y-88320498D01*
X107780482Y-88284188D01*
X107656000Y-88271928D01*
X106656000Y-88271928D01*
X106531518Y-88284188D01*
X106411820Y-88320498D01*
X106301506Y-88379463D01*
X106204815Y-88458815D01*
X106157092Y-88516966D01*
X106149237Y-88505211D01*
X106060789Y-88416763D01*
X105956785Y-88347270D01*
X105841223Y-88299403D01*
X105718542Y-88275000D01*
X105441750Y-88275000D01*
X105283000Y-88433750D01*
X105283000Y-89408000D01*
X105303000Y-89408000D01*
X105303000Y-89662000D01*
X105283000Y-89662000D01*
X105283000Y-90636250D01*
X105441750Y-90795000D01*
X105718542Y-90795000D01*
X105841223Y-90770597D01*
X105956785Y-90722730D01*
X106060789Y-90653237D01*
X106149237Y-90564789D01*
X106157092Y-90553034D01*
X106204815Y-90611185D01*
X106301506Y-90690537D01*
X106394001Y-90739977D01*
X106394001Y-91343567D01*
X106390314Y-91381000D01*
X106405027Y-91530378D01*
X106448599Y-91674015D01*
X106519355Y-91806392D01*
X106590721Y-91893351D01*
X106614579Y-91922422D01*
X106643649Y-91946279D01*
X111094720Y-96397351D01*
X111118578Y-96426422D01*
X111147648Y-96450279D01*
X111234607Y-96521645D01*
X111302623Y-96558000D01*
X111366985Y-96592402D01*
X111482700Y-96627504D01*
X111552759Y-96685000D01*
X111506456Y-96723000D01*
X102611631Y-96723000D01*
X97107702Y-91219072D01*
X97678000Y-91219072D01*
X97802482Y-91206812D01*
X97922180Y-91170502D01*
X97941566Y-91160140D01*
X97963768Y-91233330D01*
X98022733Y-91343644D01*
X98102085Y-91440335D01*
X98198776Y-91519687D01*
X98309090Y-91578652D01*
X98428788Y-91614962D01*
X98553270Y-91627222D01*
X100582730Y-91627222D01*
X100707212Y-91614962D01*
X100826910Y-91578652D01*
X100937224Y-91519687D01*
X101033915Y-91440335D01*
X101113267Y-91343644D01*
X101172232Y-91233330D01*
X101208542Y-91113632D01*
X101220802Y-90989150D01*
X101220802Y-90378050D01*
X101778102Y-89820750D01*
X104021000Y-89820750D01*
X104021000Y-90222542D01*
X104045403Y-90345223D01*
X104093270Y-90460785D01*
X104162763Y-90564789D01*
X104251211Y-90653237D01*
X104355215Y-90722730D01*
X104470777Y-90770597D01*
X104593458Y-90795000D01*
X104870250Y-90795000D01*
X105029000Y-90636250D01*
X105029000Y-89662000D01*
X104179750Y-89662000D01*
X104021000Y-89820750D01*
X101778102Y-89820750D01*
X101999540Y-89599313D01*
X102031040Y-89573462D01*
X102134198Y-89447763D01*
X102210852Y-89304355D01*
X102258055Y-89148747D01*
X102269999Y-89027474D01*
X102269999Y-89027465D01*
X102273992Y-88986922D01*
X102269999Y-88946379D01*
X102269999Y-88847458D01*
X104021000Y-88847458D01*
X104021000Y-89249250D01*
X104179750Y-89408000D01*
X105029000Y-89408000D01*
X105029000Y-88433750D01*
X104870250Y-88275000D01*
X104593458Y-88275000D01*
X104470777Y-88299403D01*
X104355215Y-88347270D01*
X104251211Y-88416763D01*
X104162763Y-88505211D01*
X104093270Y-88609215D01*
X104045403Y-88724777D01*
X104021000Y-88847458D01*
X102269999Y-88847458D01*
X102269999Y-85560492D01*
X102803991Y-85026500D01*
X110573937Y-85026500D01*
X112415437Y-86868000D01*
G36*
X129413000Y-92723000D02*
G01*
X125452072Y-92723000D01*
X125452072Y-92410000D01*
X125439812Y-92285518D01*
X125437795Y-92278870D01*
X125449000Y-92222542D01*
X125449000Y-92170750D01*
X125356917Y-92078667D01*
X125344537Y-92055506D01*
X125265185Y-91958815D01*
X125168494Y-91879463D01*
X125058180Y-91820498D01*
X124938482Y-91784188D01*
X124814000Y-91771928D01*
X123917000Y-91771928D01*
X123917000Y-91758000D01*
X123937000Y-91758000D01*
X123937000Y-91133750D01*
X124191000Y-91133750D01*
X124191000Y-91758000D01*
X125290250Y-91758000D01*
X125449000Y-91599250D01*
X125449000Y-91547458D01*
X125424597Y-91424777D01*
X125376730Y-91309215D01*
X125307237Y-91205211D01*
X125218789Y-91116763D01*
X125114785Y-91047270D01*
X124999223Y-90999403D01*
X124876542Y-90975000D01*
X124349750Y-90975000D01*
X124191000Y-91133750D01*
X123937000Y-91133750D01*
X123778250Y-90975000D01*
X123273132Y-90975000D01*
X123277072Y-90935000D01*
X123277072Y-89435000D01*
X123264812Y-89310518D01*
X123228502Y-89190820D01*
X123169537Y-89080506D01*
X123090185Y-88983815D01*
X122993494Y-88904463D01*
X122883180Y-88845498D01*
X122763482Y-88809188D01*
X122639000Y-88796928D01*
X122089000Y-88796928D01*
X121964518Y-88809188D01*
X121964000Y-88809345D01*
X121963482Y-88809188D01*
X121839000Y-88796928D01*
X121496304Y-88796928D01*
X127575353Y-82717880D01*
X127604423Y-82694023D01*
X127699646Y-82577993D01*
X127770403Y-82445616D01*
X127813975Y-82301979D01*
X127825001Y-82190027D01*
X127825001Y-82190025D01*
X127828687Y-82152602D01*
X127825001Y-82115179D01*
X127825001Y-80666822D01*
X127828687Y-80629399D01*
X127824828Y-80590215D01*
X127813975Y-80480021D01*
X127770403Y-80336384D01*
X127721821Y-80245494D01*
X127699646Y-80204006D01*
X127628280Y-80117047D01*
X127604423Y-80087977D01*
X127575354Y-80064121D01*
X127374072Y-79862839D01*
X127374072Y-78891000D01*
X127361812Y-78766518D01*
X127325502Y-78646820D01*
X127266537Y-78536506D01*
X127187185Y-78439815D01*
X127090494Y-78360463D01*
X126980180Y-78301498D01*
X126860482Y-78265188D01*
X126736000Y-78252928D01*
X125486000Y-78252928D01*
X125361518Y-78265188D01*
X125241820Y-78301498D01*
X125131506Y-78360463D01*
X125034815Y-78439815D01*
X124955463Y-78536506D01*
X124896498Y-78646820D01*
X124893713Y-78656000D01*
X122350966Y-78656000D01*
X122344812Y-78593518D01*
X122308502Y-78473820D01*
X122249537Y-78363506D01*
X122170185Y-78266815D01*
X122073494Y-78187463D01*
X121963180Y-78128498D01*
X121843482Y-78092188D01*
X121719000Y-78079928D01*
X120519000Y-78079928D01*
X120394518Y-78092188D01*
X120274820Y-78128498D01*
X120266233Y-78133088D01*
X120204223Y-78107403D01*
X120081542Y-78083000D01*
X119704750Y-78083000D01*
X119546000Y-78241750D01*
X119546000Y-79291000D01*
X119566000Y-79291000D01*
X119566000Y-79545000D01*
X119546000Y-79545000D01*
X119546000Y-79565000D01*
X119292000Y-79565000D01*
X119292000Y-79545000D01*
X118342750Y-79545000D01*
X118184000Y-79703750D01*
X118184000Y-80180542D01*
X118208403Y-80303223D01*
X118256270Y-80418785D01*
X118324020Y-80520180D01*
X118288463Y-80563506D01*
X118229498Y-80673820D01*
X118193188Y-80793518D01*
X118187034Y-80856000D01*
X116047431Y-80856000D01*
X116022502Y-80773820D01*
X115963537Y-80663506D01*
X115884185Y-80566815D01*
X115826034Y-80519092D01*
X115837789Y-80511237D01*
X115926237Y-80422789D01*
X115995730Y-80318785D01*
X116043597Y-80203223D01*
X116068000Y-80080542D01*
X116068000Y-79803750D01*
X115909250Y-79645000D01*
X114935000Y-79645000D01*
X114935000Y-79665000D01*
X114681000Y-79665000D01*
X114681000Y-79645000D01*
X113706750Y-79645000D01*
X113548000Y-79803750D01*
X113548000Y-80080542D01*
X113572403Y-80203223D01*
X113620270Y-80318785D01*
X113689763Y-80422789D01*
X113778211Y-80511237D01*
X113789966Y-80519092D01*
X113731815Y-80566815D01*
X113652463Y-80663506D01*
X113593498Y-80773820D01*
X113557188Y-80893518D01*
X113544928Y-81018000D01*
X113544928Y-82018000D01*
X113557188Y-82142482D01*
X113593498Y-82262180D01*
X113652463Y-82372494D01*
X113731815Y-82469185D01*
X113828506Y-82548537D01*
X113938820Y-82607502D01*
X114058518Y-82643812D01*
X114183000Y-82656072D01*
X115433000Y-82656072D01*
X115557482Y-82643812D01*
X115677180Y-82607502D01*
X115787494Y-82548537D01*
X115884185Y-82469185D01*
X115957377Y-82380000D01*
X118187034Y-82380000D01*
X118193188Y-82442482D01*
X118229498Y-82562180D01*
X118271887Y-82641483D01*
X117051654Y-83861716D01*
X117022578Y-83885578D01*
X116970292Y-83949289D01*
X116927355Y-84001608D01*
X116900745Y-84051392D01*
X116856598Y-84133986D01*
X116813026Y-84277623D01*
X116802050Y-84389065D01*
X116798314Y-84427000D01*
X116802000Y-84464423D01*
X116802001Y-89027455D01*
X116789500Y-89042687D01*
X116789500Y-89013447D01*
X116777556Y-88892174D01*
X116730353Y-88736566D01*
X116653699Y-88593158D01*
X116550541Y-88467459D01*
X116424842Y-88364301D01*
X116281434Y-88287647D01*
X116125826Y-88240444D01*
X116122409Y-88240108D01*
X111950500Y-84068199D01*
X111950500Y-82604752D01*
X111994180Y-82591502D01*
X112104494Y-82532537D01*
X112201185Y-82453185D01*
X112280537Y-82356494D01*
X112339502Y-82246180D01*
X112375812Y-82126482D01*
X112388072Y-82002000D01*
X112388072Y-81002000D01*
X112375812Y-80877518D01*
X112339502Y-80757820D01*
X112280537Y-80647506D01*
X112201185Y-80550815D01*
X112143034Y-80503092D01*
X112154789Y-80495237D01*
X112243237Y-80406789D01*
X112312730Y-80302785D01*
X112360597Y-80187223D01*
X112385000Y-80064542D01*
X112385000Y-79787750D01*
X112226250Y-79629000D01*
X111252000Y-79629000D01*
X111252000Y-79649000D01*
X110998000Y-79649000D01*
X110998000Y-79629000D01*
X110023750Y-79629000D01*
X109865000Y-79787750D01*
X109865000Y-80064542D01*
X109889403Y-80187223D01*
X109937270Y-80302785D01*
X110006763Y-80406789D01*
X110095211Y-80495237D01*
X110106966Y-80503092D01*
X110048815Y-80550815D01*
X109969463Y-80647506D01*
X109910498Y-80757820D01*
X109874188Y-80877518D01*
X109861928Y-81002000D01*
X109861928Y-82002000D01*
X109874188Y-82126482D01*
X109910498Y-82246180D01*
X109969463Y-82356494D01*
X110048815Y-82453185D01*
X110145506Y-82532537D01*
X110255820Y-82591502D01*
X110299500Y-82604752D01*
X110299501Y-83375500D01*
X102502608Y-83375500D01*
X102462058Y-83371506D01*
X102421507Y-83375500D01*
X102421505Y-83375500D01*
X102300232Y-83387444D01*
X102144624Y-83434647D01*
X102001215Y-83511301D01*
X101907016Y-83588608D01*
X101907013Y-83588611D01*
X101875517Y-83614459D01*
X101849669Y-83645955D01*
X100889460Y-84606166D01*
X100857959Y-84632018D01*
X100832108Y-84663518D01*
X100754800Y-84757717D01*
X100678146Y-84901126D01*
X100630944Y-85056733D01*
X100615005Y-85218559D01*
X100619000Y-85259119D01*
X100619000Y-86806270D01*
X100582730Y-86802698D01*
X100393500Y-86802698D01*
X100393500Y-83479550D01*
X100397494Y-83439000D01*
X100391240Y-83375500D01*
X100381556Y-83277174D01*
X100334353Y-83121566D01*
X100330000Y-83113422D01*
X100257699Y-82978157D01*
X100180392Y-82883958D01*
X100180389Y-82883955D01*
X100154541Y-82852459D01*
X100123046Y-82826612D01*
X98826433Y-81530000D01*
X98843948Y-81530000D01*
X99106697Y-81477736D01*
X99354201Y-81375216D01*
X99576949Y-81226381D01*
X99766381Y-81036949D01*
X99915216Y-80814201D01*
X100017736Y-80566697D01*
X100070000Y-80303948D01*
X100070000Y-80036052D01*
X100017736Y-79773303D01*
X99915216Y-79525799D01*
X99872000Y-79461121D01*
X99872000Y-79045019D01*
X99952102Y-79037130D01*
X100184901Y-78966511D01*
X100235513Y-78939458D01*
X109865000Y-78939458D01*
X109865000Y-79216250D01*
X110023750Y-79375000D01*
X110998000Y-79375000D01*
X110998000Y-78525750D01*
X111252000Y-78525750D01*
X111252000Y-79375000D01*
X112226250Y-79375000D01*
X112385000Y-79216250D01*
X112385000Y-78955458D01*
X113548000Y-78955458D01*
X113548000Y-79232250D01*
X113706750Y-79391000D01*
X114681000Y-79391000D01*
X114681000Y-78541750D01*
X114935000Y-78541750D01*
X114935000Y-79391000D01*
X115909250Y-79391000D01*
X116068000Y-79232250D01*
X116068000Y-78955458D01*
X116043597Y-78832777D01*
X115995730Y-78717215D01*
X115954466Y-78655458D01*
X118184000Y-78655458D01*
X118184000Y-79132250D01*
X118342750Y-79291000D01*
X119292000Y-79291000D01*
X119292000Y-78241750D01*
X119133250Y-78083000D01*
X118756458Y-78083000D01*
X118633777Y-78107403D01*
X118518215Y-78155270D01*
X118414211Y-78224763D01*
X118325763Y-78313211D01*
X118256270Y-78417215D01*
X118208403Y-78532777D01*
X118184000Y-78655458D01*
X115954466Y-78655458D01*
X115926237Y-78613211D01*
X115837789Y-78524763D01*
X115733785Y-78455270D01*
X115618223Y-78407403D01*
X115495542Y-78383000D01*
X115093750Y-78383000D01*
X114935000Y-78541750D01*
X114681000Y-78541750D01*
X114522250Y-78383000D01*
X114120458Y-78383000D01*
X113997777Y-78407403D01*
X113882215Y-78455270D01*
X113778211Y-78524763D01*
X113689763Y-78613211D01*
X113620270Y-78717215D01*
X113572403Y-78832777D01*
X113548000Y-78955458D01*
X112385000Y-78955458D01*
X112385000Y-78939458D01*
X112360597Y-78816777D01*
X112312730Y-78701215D01*
X112243237Y-78597211D01*
X112154789Y-78508763D01*
X112050785Y-78439270D01*
X111935223Y-78391403D01*
X111812542Y-78367000D01*
X111410750Y-78367000D01*
X111252000Y-78525750D01*
X110998000Y-78525750D01*
X110839250Y-78367000D01*
X110437458Y-78367000D01*
X110314777Y-78391403D01*
X110199215Y-78439270D01*
X110095211Y-78508763D01*
X110006763Y-78597211D01*
X109937270Y-78701215D01*
X109889403Y-78816777D01*
X109865000Y-78939458D01*
X100235513Y-78939458D01*
X100399449Y-78851833D01*
X100587502Y-78697502D01*
X100741833Y-78509449D01*
X100856511Y-78294901D01*
X100927130Y-78062101D01*
X100945000Y-77880664D01*
X100945000Y-77059335D01*
X100927130Y-76877898D01*
X100856511Y-76645099D01*
X100741833Y-76430551D01*
X100587502Y-76242498D01*
X100535718Y-76200000D01*
X129413000Y-76200000D01*
X129413000Y-92723000D01*
X129413000Y-92723000D01*
G37*
X129413000Y-92723000D02*
X125452072Y-92723000D01*
X125452072Y-92410000D01*
X125439812Y-92285518D01*
X125437795Y-92278870D01*
X125449000Y-92222542D01*
X125449000Y-92170750D01*
X125356917Y-92078667D01*
X125344537Y-92055506D01*
X125265185Y-91958815D01*
X125168494Y-91879463D01*
X125058180Y-91820498D01*
X124938482Y-91784188D01*
X124814000Y-91771928D01*
X123917000Y-91771928D01*
X123917000Y-91758000D01*
X123937000Y-91758000D01*
X123937000Y-91133750D01*
X124191000Y-91133750D01*
X124191000Y-91758000D01*
X125290250Y-91758000D01*
X125449000Y-91599250D01*
X125449000Y-91547458D01*
X125424597Y-91424777D01*
X125376730Y-91309215D01*
X125307237Y-91205211D01*
X125218789Y-91116763D01*
X125114785Y-91047270D01*
X124999223Y-90999403D01*
X124876542Y-90975000D01*
X124349750Y-90975000D01*
X124191000Y-91133750D01*
X123937000Y-91133750D01*
X123778250Y-90975000D01*
X123273132Y-90975000D01*
X123277072Y-90935000D01*
X123277072Y-89435000D01*
X123264812Y-89310518D01*
X123228502Y-89190820D01*
X123169537Y-89080506D01*
X123090185Y-88983815D01*
X122993494Y-88904463D01*
X122883180Y-88845498D01*
X122763482Y-88809188D01*
X122639000Y-88796928D01*
X122089000Y-88796928D01*
X121964518Y-88809188D01*
X121964000Y-88809345D01*
X121963482Y-88809188D01*
X121839000Y-88796928D01*
X121496304Y-88796928D01*
X127575353Y-82717880D01*
X127604423Y-82694023D01*
X127699646Y-82577993D01*
X127770403Y-82445616D01*
X127813975Y-82301979D01*
X127825001Y-82190027D01*
X127825001Y-82190025D01*
X127828687Y-82152602D01*
X127825001Y-82115179D01*
X127825001Y-80666822D01*
X127828687Y-80629399D01*
X127824828Y-80590215D01*
X127813975Y-80480021D01*
X127770403Y-80336384D01*
X127721821Y-80245494D01*
X127699646Y-80204006D01*
X127628280Y-80117047D01*
X127604423Y-80087977D01*
X127575354Y-80064121D01*
X127374072Y-79862839D01*
X127374072Y-78891000D01*
X127361812Y-78766518D01*
X127325502Y-78646820D01*
X127266537Y-78536506D01*
X127187185Y-78439815D01*
X127090494Y-78360463D01*
X126980180Y-78301498D01*
X126860482Y-78265188D01*
X126736000Y-78252928D01*
X125486000Y-78252928D01*
X125361518Y-78265188D01*
X125241820Y-78301498D01*
X125131506Y-78360463D01*
X125034815Y-78439815D01*
X124955463Y-78536506D01*
X124896498Y-78646820D01*
X124893713Y-78656000D01*
X122350966Y-78656000D01*
X122344812Y-78593518D01*
X122308502Y-78473820D01*
X122249537Y-78363506D01*
X122170185Y-78266815D01*
X122073494Y-78187463D01*
X121963180Y-78128498D01*
X121843482Y-78092188D01*
X121719000Y-78079928D01*
X120519000Y-78079928D01*
X120394518Y-78092188D01*
X120274820Y-78128498D01*
X120266233Y-78133088D01*
X120204223Y-78107403D01*
X120081542Y-78083000D01*
X119704750Y-78083000D01*
X119546000Y-78241750D01*
X119546000Y-79291000D01*
X119566000Y-79291000D01*
X119566000Y-79545000D01*
X119546000Y-79545000D01*
X119546000Y-79565000D01*
X119292000Y-79565000D01*
X119292000Y-79545000D01*
X118342750Y-79545000D01*
X118184000Y-79703750D01*
X118184000Y-80180542D01*
X118208403Y-80303223D01*
X118256270Y-80418785D01*
X118324020Y-80520180D01*
X118288463Y-80563506D01*
X118229498Y-80673820D01*
X118193188Y-80793518D01*
X118187034Y-80856000D01*
X116047431Y-80856000D01*
X116022502Y-80773820D01*
X115963537Y-80663506D01*
X115884185Y-80566815D01*
X115826034Y-80519092D01*
X115837789Y-80511237D01*
X115926237Y-80422789D01*
X115995730Y-80318785D01*
X116043597Y-80203223D01*
X116068000Y-80080542D01*
X116068000Y-79803750D01*
X115909250Y-79645000D01*
X114935000Y-79645000D01*
X114935000Y-79665000D01*
X114681000Y-79665000D01*
X114681000Y-79645000D01*
X113706750Y-79645000D01*
X113548000Y-79803750D01*
X113548000Y-80080542D01*
X113572403Y-80203223D01*
X113620270Y-80318785D01*
X113689763Y-80422789D01*
X113778211Y-80511237D01*
X113789966Y-80519092D01*
X113731815Y-80566815D01*
X113652463Y-80663506D01*
X113593498Y-80773820D01*
X113557188Y-80893518D01*
X113544928Y-81018000D01*
X113544928Y-82018000D01*
X113557188Y-82142482D01*
X113593498Y-82262180D01*
X113652463Y-82372494D01*
X113731815Y-82469185D01*
X113828506Y-82548537D01*
X113938820Y-82607502D01*
X114058518Y-82643812D01*
X114183000Y-82656072D01*
X115433000Y-82656072D01*
X115557482Y-82643812D01*
X115677180Y-82607502D01*
X115787494Y-82548537D01*
X115884185Y-82469185D01*
X115957377Y-82380000D01*
X118187034Y-82380000D01*
X118193188Y-82442482D01*
X118229498Y-82562180D01*
X118271887Y-82641483D01*
X117051654Y-83861716D01*
X117022578Y-83885578D01*
X116970292Y-83949289D01*
X116927355Y-84001608D01*
X116900745Y-84051392D01*
X116856598Y-84133986D01*
X116813026Y-84277623D01*
X116802050Y-84389065D01*
X116798314Y-84427000D01*
X116802000Y-84464423D01*
X116802001Y-89027455D01*
X116789500Y-89042687D01*
X116789500Y-89013447D01*
X116777556Y-88892174D01*
X116730353Y-88736566D01*
X116653699Y-88593158D01*
X116550541Y-88467459D01*
X116424842Y-88364301D01*
X116281434Y-88287647D01*
X116125826Y-88240444D01*
X116122409Y-88240108D01*
X111950500Y-84068199D01*
X111950500Y-82604752D01*
X111994180Y-82591502D01*
X112104494Y-82532537D01*
X112201185Y-82453185D01*
X112280537Y-82356494D01*
X112339502Y-82246180D01*
X112375812Y-82126482D01*
X112388072Y-82002000D01*
X112388072Y-81002000D01*
X112375812Y-80877518D01*
X112339502Y-80757820D01*
X112280537Y-80647506D01*
X112201185Y-80550815D01*
X112143034Y-80503092D01*
X112154789Y-80495237D01*
X112243237Y-80406789D01*
X112312730Y-80302785D01*
X112360597Y-80187223D01*
X112385000Y-80064542D01*
X112385000Y-79787750D01*
X112226250Y-79629000D01*
X111252000Y-79629000D01*
X111252000Y-79649000D01*
X110998000Y-79649000D01*
X110998000Y-79629000D01*
X110023750Y-79629000D01*
X109865000Y-79787750D01*
X109865000Y-80064542D01*
X109889403Y-80187223D01*
X109937270Y-80302785D01*
X110006763Y-80406789D01*
X110095211Y-80495237D01*
X110106966Y-80503092D01*
X110048815Y-80550815D01*
X109969463Y-80647506D01*
X109910498Y-80757820D01*
X109874188Y-80877518D01*
X109861928Y-81002000D01*
X109861928Y-82002000D01*
X109874188Y-82126482D01*
X109910498Y-82246180D01*
X109969463Y-82356494D01*
X110048815Y-82453185D01*
X110145506Y-82532537D01*
X110255820Y-82591502D01*
X110299500Y-82604752D01*
X110299501Y-83375500D01*
X102502608Y-83375500D01*
X102462058Y-83371506D01*
X102421507Y-83375500D01*
X102421505Y-83375500D01*
X102300232Y-83387444D01*
X102144624Y-83434647D01*
X102001215Y-83511301D01*
X101907016Y-83588608D01*
X101907013Y-83588611D01*
X101875517Y-83614459D01*
X101849669Y-83645955D01*
X100889460Y-84606166D01*
X100857959Y-84632018D01*
X100832108Y-84663518D01*
X100754800Y-84757717D01*
X100678146Y-84901126D01*
X100630944Y-85056733D01*
X100615005Y-85218559D01*
X100619000Y-85259119D01*
X100619000Y-86806270D01*
X100582730Y-86802698D01*
X100393500Y-86802698D01*
X100393500Y-83479550D01*
X100397494Y-83439000D01*
X100391240Y-83375500D01*
X100381556Y-83277174D01*
X100334353Y-83121566D01*
X100330000Y-83113422D01*
X100257699Y-82978157D01*
X100180392Y-82883958D01*
X100180389Y-82883955D01*
X100154541Y-82852459D01*
X100123046Y-82826612D01*
X98826433Y-81530000D01*
X98843948Y-81530000D01*
X99106697Y-81477736D01*
X99354201Y-81375216D01*
X99576949Y-81226381D01*
X99766381Y-81036949D01*
X99915216Y-80814201D01*
X100017736Y-80566697D01*
X100070000Y-80303948D01*
X100070000Y-80036052D01*
X100017736Y-79773303D01*
X99915216Y-79525799D01*
X99872000Y-79461121D01*
X99872000Y-79045019D01*
X99952102Y-79037130D01*
X100184901Y-78966511D01*
X100235513Y-78939458D01*
X109865000Y-78939458D01*
X109865000Y-79216250D01*
X110023750Y-79375000D01*
X110998000Y-79375000D01*
X110998000Y-78525750D01*
X111252000Y-78525750D01*
X111252000Y-79375000D01*
X112226250Y-79375000D01*
X112385000Y-79216250D01*
X112385000Y-78955458D01*
X113548000Y-78955458D01*
X113548000Y-79232250D01*
X113706750Y-79391000D01*
X114681000Y-79391000D01*
X114681000Y-78541750D01*
X114935000Y-78541750D01*
X114935000Y-79391000D01*
X115909250Y-79391000D01*
X116068000Y-79232250D01*
X116068000Y-78955458D01*
X116043597Y-78832777D01*
X115995730Y-78717215D01*
X115954466Y-78655458D01*
X118184000Y-78655458D01*
X118184000Y-79132250D01*
X118342750Y-79291000D01*
X119292000Y-79291000D01*
X119292000Y-78241750D01*
X119133250Y-78083000D01*
X118756458Y-78083000D01*
X118633777Y-78107403D01*
X118518215Y-78155270D01*
X118414211Y-78224763D01*
X118325763Y-78313211D01*
X118256270Y-78417215D01*
X118208403Y-78532777D01*
X118184000Y-78655458D01*
X115954466Y-78655458D01*
X115926237Y-78613211D01*
X115837789Y-78524763D01*
X115733785Y-78455270D01*
X115618223Y-78407403D01*
X115495542Y-78383000D01*
X115093750Y-78383000D01*
X114935000Y-78541750D01*
X114681000Y-78541750D01*
X114522250Y-78383000D01*
X114120458Y-78383000D01*
X113997777Y-78407403D01*
X113882215Y-78455270D01*
X113778211Y-78524763D01*
X113689763Y-78613211D01*
X113620270Y-78717215D01*
X113572403Y-78832777D01*
X113548000Y-78955458D01*
X112385000Y-78955458D01*
X112385000Y-78939458D01*
X112360597Y-78816777D01*
X112312730Y-78701215D01*
X112243237Y-78597211D01*
X112154789Y-78508763D01*
X112050785Y-78439270D01*
X111935223Y-78391403D01*
X111812542Y-78367000D01*
X111410750Y-78367000D01*
X111252000Y-78525750D01*
X110998000Y-78525750D01*
X110839250Y-78367000D01*
X110437458Y-78367000D01*
X110314777Y-78391403D01*
X110199215Y-78439270D01*
X110095211Y-78508763D01*
X110006763Y-78597211D01*
X109937270Y-78701215D01*
X109889403Y-78816777D01*
X109865000Y-78939458D01*
X100235513Y-78939458D01*
X100399449Y-78851833D01*
X100587502Y-78697502D01*
X100741833Y-78509449D01*
X100856511Y-78294901D01*
X100927130Y-78062101D01*
X100945000Y-77880664D01*
X100945000Y-77059335D01*
X100927130Y-76877898D01*
X100856511Y-76645099D01*
X100741833Y-76430551D01*
X100587502Y-76242498D01*
X100535718Y-76200000D01*
X129413000Y-76200000D01*
X129413000Y-92723000D01*
G36*
X116934506Y-91465537D02*
G01*
X116957667Y-91477917D01*
X117049750Y-91570000D01*
X117101542Y-91570000D01*
X117157870Y-91558795D01*
X117164518Y-91560812D01*
X117289000Y-91573072D01*
X117839000Y-91573072D01*
X117963482Y-91560812D01*
X117964000Y-91560655D01*
X117964518Y-91560812D01*
X118089000Y-91573072D01*
X118639000Y-91573072D01*
X118763482Y-91560812D01*
X118764000Y-91560655D01*
X118764518Y-91560812D01*
X118889000Y-91573072D01*
X119439000Y-91573072D01*
X119563482Y-91560812D01*
X119564000Y-91560655D01*
X119564518Y-91560812D01*
X119689000Y-91573072D01*
X120239000Y-91573072D01*
X120363482Y-91560812D01*
X120364000Y-91560655D01*
X120364518Y-91560812D01*
X120489000Y-91573072D01*
X121039000Y-91573072D01*
X121163482Y-91560812D01*
X121164000Y-91560655D01*
X121164518Y-91560812D01*
X121289000Y-91573072D01*
X121839000Y-91573072D01*
X121963482Y-91560812D01*
X121964000Y-91560655D01*
X121964518Y-91560812D01*
X122089000Y-91573072D01*
X122639000Y-91573072D01*
X122679000Y-91569132D01*
X122679000Y-91599250D01*
X122837748Y-91757998D01*
X122679000Y-91757998D01*
X122679000Y-91859500D01*
X116789500Y-91859500D01*
X116789500Y-91570000D01*
X116891002Y-91570000D01*
X116891002Y-91429834D01*
X116934506Y-91465537D01*
X116934506Y-91465537D01*
G37*
X116934506Y-91465537D02*
X116957667Y-91477917D01*
X117049750Y-91570000D01*
X117101542Y-91570000D01*
X117157870Y-91558795D01*
X117164518Y-91560812D01*
X117289000Y-91573072D01*
X117839000Y-91573072D01*
X117963482Y-91560812D01*
X117964000Y-91560655D01*
X117964518Y-91560812D01*
X118089000Y-91573072D01*
X118639000Y-91573072D01*
X118763482Y-91560812D01*
X118764000Y-91560655D01*
X118764518Y-91560812D01*
X118889000Y-91573072D01*
X119439000Y-91573072D01*
X119563482Y-91560812D01*
X119564000Y-91560655D01*
X119564518Y-91560812D01*
X119689000Y-91573072D01*
X120239000Y-91573072D01*
X120363482Y-91560812D01*
X120364000Y-91560655D01*
X120364518Y-91560812D01*
X120489000Y-91573072D01*
X121039000Y-91573072D01*
X121163482Y-91560812D01*
X121164000Y-91560655D01*
X121164518Y-91560812D01*
X121289000Y-91573072D01*
X121839000Y-91573072D01*
X121963482Y-91560812D01*
X121964000Y-91560655D01*
X121964518Y-91560812D01*
X122089000Y-91573072D01*
X122639000Y-91573072D01*
X122679000Y-91569132D01*
X122679000Y-91599250D01*
X122837748Y-91757998D01*
X122679000Y-91757998D01*
X122679000Y-91859500D01*
X116789500Y-91859500D01*
X116789500Y-91570000D01*
X116891002Y-91570000D01*
X116891002Y-91429834D01*
X116934506Y-91465537D01*
G36*
X124955463Y-80245494D02*
G01*
X125034815Y-80342185D01*
X125092966Y-80389908D01*
X125081211Y-80397763D01*
X124992763Y-80486211D01*
X124923270Y-80590215D01*
X124875403Y-80705777D01*
X124851000Y-80828458D01*
X124851000Y-81105250D01*
X125009750Y-81264000D01*
X125984000Y-81264000D01*
X125984000Y-81244000D01*
X126238000Y-81244000D01*
X126238000Y-81264000D01*
X126258000Y-81264000D01*
X126258000Y-81518000D01*
X126238000Y-81518000D01*
X126238000Y-81538000D01*
X125984000Y-81538000D01*
X125984000Y-81518000D01*
X125009750Y-81518000D01*
X124851000Y-81676750D01*
X124851000Y-81953542D01*
X124875403Y-82076223D01*
X124923270Y-82191785D01*
X124992763Y-82295789D01*
X125081211Y-82384237D01*
X125185215Y-82453730D01*
X125300777Y-82501597D01*
X125423458Y-82526000D01*
X125611971Y-82526000D01*
X119791973Y-88345999D01*
X118474423Y-88345999D01*
X118437000Y-88342313D01*
X118399577Y-88345999D01*
X118399575Y-88345999D01*
X118326000Y-88353245D01*
X118326000Y-84742630D01*
X119931352Y-83137279D01*
X119960422Y-83113422D01*
X120055645Y-82997392D01*
X120080995Y-82949966D01*
X120143482Y-82943812D01*
X120263180Y-82907502D01*
X120271767Y-82902912D01*
X120333777Y-82928597D01*
X120456458Y-82953000D01*
X120833250Y-82953000D01*
X120992000Y-82794250D01*
X120992000Y-81745000D01*
X121246000Y-81745000D01*
X121246000Y-82794250D01*
X121404750Y-82953000D01*
X121781542Y-82953000D01*
X121904223Y-82928597D01*
X122019785Y-82880730D01*
X122123789Y-82811237D01*
X122212237Y-82722789D01*
X122281730Y-82618785D01*
X122329597Y-82503223D01*
X122354000Y-82380542D01*
X122354000Y-81903750D01*
X122195250Y-81745000D01*
X121246000Y-81745000D01*
X120992000Y-81745000D01*
X120972000Y-81745000D01*
X120972000Y-81491000D01*
X120992000Y-81491000D01*
X120992000Y-81471000D01*
X121246000Y-81471000D01*
X121246000Y-81491000D01*
X122195250Y-81491000D01*
X122354000Y-81332250D01*
X122354000Y-80855458D01*
X122329597Y-80732777D01*
X122281730Y-80617215D01*
X122213980Y-80515820D01*
X122249537Y-80472494D01*
X122308502Y-80362180D01*
X122344812Y-80242482D01*
X122350966Y-80180000D01*
X124920455Y-80180000D01*
X124955463Y-80245494D01*
X124955463Y-80245494D01*
G37*
X124955463Y-80245494D02*
X125034815Y-80342185D01*
X125092966Y-80389908D01*
X125081211Y-80397763D01*
X124992763Y-80486211D01*
X124923270Y-80590215D01*
X124875403Y-80705777D01*
X124851000Y-80828458D01*
X124851000Y-81105250D01*
X125009750Y-81264000D01*
X125984000Y-81264000D01*
X125984000Y-81244000D01*
X126238000Y-81244000D01*
X126238000Y-81264000D01*
X126258000Y-81264000D01*
X126258000Y-81518000D01*
X126238000Y-81518000D01*
X126238000Y-81538000D01*
X125984000Y-81538000D01*
X125984000Y-81518000D01*
X125009750Y-81518000D01*
X124851000Y-81676750D01*
X124851000Y-81953542D01*
X124875403Y-82076223D01*
X124923270Y-82191785D01*
X124992763Y-82295789D01*
X125081211Y-82384237D01*
X125185215Y-82453730D01*
X125300777Y-82501597D01*
X125423458Y-82526000D01*
X125611971Y-82526000D01*
X119791973Y-88345999D01*
X118474423Y-88345999D01*
X118437000Y-88342313D01*
X118399577Y-88345999D01*
X118399575Y-88345999D01*
X118326000Y-88353245D01*
X118326000Y-84742630D01*
X119931352Y-83137279D01*
X119960422Y-83113422D01*
X120055645Y-82997392D01*
X120080995Y-82949966D01*
X120143482Y-82943812D01*
X120263180Y-82907502D01*
X120271767Y-82902912D01*
X120333777Y-82928597D01*
X120456458Y-82953000D01*
X120833250Y-82953000D01*
X120992000Y-82794250D01*
X120992000Y-81745000D01*
X121246000Y-81745000D01*
X121246000Y-82794250D01*
X121404750Y-82953000D01*
X121781542Y-82953000D01*
X121904223Y-82928597D01*
X122019785Y-82880730D01*
X122123789Y-82811237D01*
X122212237Y-82722789D01*
X122281730Y-82618785D01*
X122329597Y-82503223D01*
X122354000Y-82380542D01*
X122354000Y-81903750D01*
X122195250Y-81745000D01*
X121246000Y-81745000D01*
X120992000Y-81745000D01*
X120972000Y-81745000D01*
X120972000Y-81491000D01*
X120992000Y-81491000D01*
X120992000Y-81471000D01*
X121246000Y-81471000D01*
X121246000Y-81491000D01*
X122195250Y-81491000D01*
X122354000Y-81332250D01*
X122354000Y-80855458D01*
X122329597Y-80732777D01*
X122281730Y-80617215D01*
X122213980Y-80515820D01*
X122249537Y-80472494D01*
X122308502Y-80362180D01*
X122344812Y-80242482D01*
X122350966Y-80180000D01*
X124920455Y-80180000D01*
X124955463Y-80245494D01*
M02*
